<svg width="128" height="128" viewBox="0 0 128 128" fill="none" xmlns="http://www.w3.org/2000/svg">
<g clip-path="url(#clip0_1_4)">
<rect width="128" height="128" fill="#666FC8"/>
<mask id="path-1-outside-1_1_4" maskUnits="userSpaceOnUse" x="17" y="24" width="96" height="81" fill="black">
<rect fill="white" x="17" y="24" width="96" height="81"/>
<path d="M19 27.5568L19.2841 25.9091H39.6676L39.3835 27.5568H30.0795L25.5341 55H23.7585L28.304 27.5568H19ZM38.4318 55L42.0682 33.1818H43.7585L43.1903 36.5909H43.3466C43.9905 35.4735 44.9375 34.5786 46.1875 33.9062C47.4375 33.2244 48.7822 32.8835 50.2216 32.8835C50.3826 32.8835 50.5341 32.8835 50.6761 32.8835C50.8182 32.8835 50.9602 32.8883 51.1023 32.8977L50.804 34.6449C50.6903 34.6354 50.553 34.6212 50.392 34.6023C50.2405 34.5739 50.0511 34.5597 49.8239 34.5597C48.6117 34.5597 47.4896 34.8201 46.4574 35.3409C45.4252 35.8617 44.5634 36.5814 43.8722 37.5C43.1809 38.4091 42.7405 39.4508 42.5511 40.625L40.1648 55H38.4318ZM59.8523 55.4545C57.8826 55.4545 56.2491 54.9669 54.9517 53.9915C53.6544 53.0161 52.75 51.6809 52.2386 49.9858C51.7273 48.2907 51.6515 46.3589 52.0114 44.1903C52.3712 42.0123 53.0909 40.071 54.1705 38.3665C55.25 36.6619 56.571 35.3172 58.1335 34.3324C59.696 33.3475 61.3816 32.8551 63.1903 32.8551C64.4119 32.8551 65.5246 33.1013 66.5284 33.5938C67.5417 34.0862 68.3939 34.7917 69.0852 35.7102C69.7765 36.6193 70.2547 37.7225 70.5199 39.0199C70.785 40.3172 70.785 41.7756 70.5199 43.3949L70.321 44.4744H53.0483L53.3182 42.8977H68.8438C69.1089 41.3258 69.0331 39.9053 68.6165 38.6364C68.1998 37.358 67.5085 36.3447 66.5426 35.5966C65.5862 34.8485 64.4119 34.4744 63.0199 34.4744C61.5994 34.4744 60.2453 34.8864 58.9574 35.7102C57.679 36.5246 56.5805 37.6136 55.6619 38.9773C54.7528 40.3409 54.1468 41.8419 53.8438 43.4801L53.6733 44.3608C53.3703 46.2358 53.4081 47.8883 53.7869 49.3182C54.1752 50.7386 54.8949 51.8513 55.946 52.6562C56.9972 53.4517 58.3703 53.8494 60.0653 53.8494C61.2491 53.8494 62.3002 53.6506 63.2188 53.2528C64.1468 52.8456 64.9328 52.3532 65.5767 51.7756C66.2301 51.1979 66.7415 50.6392 67.1108 50.0994L68.5455 50.7386C68.1098 51.4678 67.4848 52.197 66.6705 52.9261C65.8561 53.6458 64.8759 54.2472 63.7301 54.7301C62.5843 55.2131 61.2917 55.4545 59.8523 55.4545ZM81.1271 25.9091L76.2976 55H74.5646L79.3942 25.9091H81.1271ZM90.0334 25.9091L85.2038 55H83.4709L88.3004 25.9091H90.0334ZM100.531 55.4545C98.7124 55.4545 97.1735 54.9669 95.9141 53.9915C94.6641 53.0066 93.7739 51.6525 93.2436 49.929C92.7133 48.2055 92.6328 46.2358 93.0021 44.0199C93.362 41.8608 94.0722 39.9432 95.1328 38.267C96.2029 36.5814 97.5097 35.2604 99.0533 34.304C100.597 33.3381 102.254 32.8551 104.025 32.8551C105.853 32.8551 107.391 33.3523 108.641 34.3466C109.901 35.3314 110.796 36.6903 111.326 38.4233C111.856 40.1468 111.946 42.1117 111.596 44.3182C111.236 46.4678 110.516 48.3854 109.437 50.071C108.367 51.7472 107.06 53.0634 105.516 54.0199C103.973 54.9763 102.311 55.4545 100.531 55.4545ZM100.559 53.8494C102.112 53.8494 103.542 53.4138 104.849 52.5426C106.156 51.6714 107.249 50.4924 108.13 49.0057C109.02 47.5189 109.612 45.857 109.906 44.0199C110.199 42.2396 110.156 40.6297 109.778 39.1903C109.399 37.7415 108.722 36.5956 107.746 35.7528C106.771 34.9006 105.535 34.4744 104.039 34.4744C102.496 34.4744 101.066 34.9148 99.7493 35.7955C98.4425 36.6761 97.344 37.8598 96.4538 39.3466C95.5637 40.8333 94.9718 42.4905 94.6783 44.3182C94.3752 46.089 94.4131 47.6989 94.7919 49.1477C95.1802 50.5871 95.862 51.733 96.8374 52.5852C97.8222 53.428 99.0627 53.8494 100.559 53.8494ZM36.7805 103L37.0078 101.651L48.201 90.7983C49.8203 89.2453 51.1129 87.929 52.0788 86.8494C53.0542 85.7699 53.7786 84.7945 54.2521 83.9233C54.7351 83.0521 55.0523 82.143 55.2038 81.196C55.4027 80.0123 55.3127 78.9659 54.9339 78.0568C54.5646 77.1383 53.9538 76.4233 53.1016 75.9119C52.2588 75.4006 51.2313 75.1449 50.0192 75.1449C48.7502 75.1449 47.5807 75.429 46.5107 75.9972C45.4406 76.5559 44.5457 77.3134 43.826 78.2699C43.1158 79.2263 42.6612 80.2964 42.4624 81.4801H40.7436C40.9898 79.9839 41.5627 78.6345 42.4624 77.4318C43.3714 76.2292 44.4983 75.2775 45.843 74.5767C47.1877 73.8665 48.6508 73.5114 50.2322 73.5114C51.7663 73.5114 53.0779 73.8475 54.1669 74.5199C55.2559 75.1922 56.0466 76.1108 56.5391 77.2756C57.0315 78.4309 57.1546 79.7377 56.9084 81.196C56.7379 82.2756 56.3875 83.3125 55.8572 84.3068C55.3269 85.2917 54.5173 86.3949 53.4283 87.6165C52.3487 88.8286 50.8904 90.3201 49.0533 92.0909L39.6357 101.196L39.6214 101.352H54.8913L54.6072 103H36.7805ZM63.3075 103.185C62.8719 103.185 62.5168 103.038 62.2422 102.744C61.9676 102.441 61.835 102.077 61.8445 101.651C61.8634 101.234 62.0291 100.879 62.3416 100.585C62.6636 100.292 63.0329 100.145 63.4496 100.145C63.8757 100.145 64.2308 100.296 64.5149 100.599C64.8085 100.893 64.9411 101.243 64.9126 101.651C64.8937 101.935 64.8085 102.195 64.657 102.432C64.5149 102.669 64.3208 102.853 64.0746 102.986C63.8378 103.118 63.5821 103.185 63.3075 103.185ZM78.8935 103.398C76.9522 103.398 75.3849 102.806 74.1918 101.622C73.008 100.429 72.2315 98.715 71.8622 96.4801C71.4929 94.2453 71.5639 91.5701 72.0753 88.4545C72.5866 85.358 73.3963 82.6922 74.5043 80.4574C75.6217 78.2225 76.9711 76.5085 78.5526 75.3153C80.1435 74.1127 81.9048 73.5114 83.8366 73.5114C85.7779 73.5114 87.3499 74.1127 88.5526 75.3153C89.7552 76.5085 90.5459 78.2225 90.9247 80.4574C91.3035 82.6828 91.2325 85.3485 90.7116 88.4545C90.2003 91.5701 89.3859 94.2453 88.2685 96.4801C87.151 98.7055 85.7969 100.415 84.206 101.608C82.6151 102.801 80.8442 103.398 78.8935 103.398ZM79.1065 101.75C81.4361 101.75 83.4863 100.599 85.2571 98.2983C87.0279 95.9972 88.2685 92.7159 88.9787 88.4545C89.4332 85.7178 89.5279 83.3551 89.2628 81.3665C88.9976 79.3778 88.3963 77.8437 87.4588 76.7642C86.5213 75.6847 85.2571 75.1449 83.6662 75.1449C81.3366 75.1449 79.2865 76.3049 77.5156 78.625C75.7543 80.9356 74.5232 84.2121 73.8224 88.4545C73.3679 91.1913 73.2637 93.554 73.5099 95.5426C73.7656 97.5312 74.3622 99.0653 75.2997 100.145C76.2372 101.215 77.5062 101.75 79.1065 101.75Z"/>
</mask>
<path d="M19 27.5568L19.2841 25.9091H39.6676L39.3835 27.5568H30.0795L25.5341 55H23.7585L28.304 27.5568H19ZM38.4318 55L42.0682 33.1818H43.7585L43.1903 36.5909H43.3466C43.9905 35.4735 44.9375 34.5786 46.1875 33.9062C47.4375 33.2244 48.7822 32.8835 50.2216 32.8835C50.3826 32.8835 50.5341 32.8835 50.6761 32.8835C50.8182 32.8835 50.9602 32.8883 51.1023 32.8977L50.804 34.6449C50.6903 34.6354 50.553 34.6212 50.392 34.6023C50.2405 34.5739 50.0511 34.5597 49.8239 34.5597C48.6117 34.5597 47.4896 34.8201 46.4574 35.3409C45.4252 35.8617 44.5634 36.5814 43.8722 37.5C43.1809 38.4091 42.7405 39.4508 42.5511 40.625L40.1648 55H38.4318ZM59.8523 55.4545C57.8826 55.4545 56.2491 54.9669 54.9517 53.9915C53.6544 53.0161 52.75 51.6809 52.2386 49.9858C51.7273 48.2907 51.6515 46.3589 52.0114 44.1903C52.3712 42.0123 53.0909 40.071 54.1705 38.3665C55.25 36.6619 56.571 35.3172 58.1335 34.3324C59.696 33.3475 61.3816 32.8551 63.1903 32.8551C64.4119 32.8551 65.5246 33.1013 66.5284 33.5938C67.5417 34.0862 68.3939 34.7917 69.0852 35.7102C69.7765 36.6193 70.2547 37.7225 70.5199 39.0199C70.785 40.3172 70.785 41.7756 70.5199 43.3949L70.321 44.4744H53.0483L53.3182 42.8977H68.8438C69.1089 41.3258 69.0331 39.9053 68.6165 38.6364C68.1998 37.358 67.5085 36.3447 66.5426 35.5966C65.5862 34.8485 64.4119 34.4744 63.0199 34.4744C61.5994 34.4744 60.2453 34.8864 58.9574 35.7102C57.679 36.5246 56.5805 37.6136 55.6619 38.9773C54.7528 40.3409 54.1468 41.8419 53.8438 43.4801L53.6733 44.3608C53.3703 46.2358 53.4081 47.8883 53.7869 49.3182C54.1752 50.7386 54.8949 51.8513 55.946 52.6562C56.9972 53.4517 58.3703 53.8494 60.0653 53.8494C61.2491 53.8494 62.3002 53.6506 63.2188 53.2528C64.1468 52.8456 64.9328 52.3532 65.5767 51.7756C66.2301 51.1979 66.7415 50.6392 67.1108 50.0994L68.5455 50.7386C68.1098 51.4678 67.4848 52.197 66.6705 52.9261C65.8561 53.6458 64.8759 54.2472 63.7301 54.7301C62.5843 55.2131 61.2917 55.4545 59.8523 55.4545ZM81.1271 25.9091L76.2976 55H74.5646L79.3942 25.9091H81.1271ZM90.0334 25.9091L85.2038 55H83.4709L88.3004 25.9091H90.0334ZM100.531 55.4545C98.7124 55.4545 97.1735 54.9669 95.9141 53.9915C94.6641 53.0066 93.7739 51.6525 93.2436 49.929C92.7133 48.2055 92.6328 46.2358 93.0021 44.0199C93.362 41.8608 94.0722 39.9432 95.1328 38.267C96.2029 36.5814 97.5097 35.2604 99.0533 34.304C100.597 33.3381 102.254 32.8551 104.025 32.8551C105.853 32.8551 107.391 33.3523 108.641 34.3466C109.901 35.3314 110.796 36.6903 111.326 38.4233C111.856 40.1468 111.946 42.1117 111.596 44.3182C111.236 46.4678 110.516 48.3854 109.437 50.071C108.367 51.7472 107.06 53.0634 105.516 54.0199C103.973 54.9763 102.311 55.4545 100.531 55.4545ZM100.559 53.8494C102.112 53.8494 103.542 53.4138 104.849 52.5426C106.156 51.6714 107.249 50.4924 108.13 49.0057C109.02 47.5189 109.612 45.857 109.906 44.0199C110.199 42.2396 110.156 40.6297 109.778 39.1903C109.399 37.7415 108.722 36.5956 107.746 35.7528C106.771 34.9006 105.535 34.4744 104.039 34.4744C102.496 34.4744 101.066 34.9148 99.7493 35.7955C98.4425 36.6761 97.344 37.8598 96.4538 39.3466C95.5637 40.8333 94.9718 42.4905 94.6783 44.3182C94.3752 46.089 94.4131 47.6989 94.7919 49.1477C95.1802 50.5871 95.862 51.733 96.8374 52.5852C97.8222 53.428 99.0627 53.8494 100.559 53.8494ZM36.7805 103L37.0078 101.651L48.201 90.7983C49.8203 89.2453 51.1129 87.929 52.0788 86.8494C53.0542 85.7699 53.7786 84.7945 54.2521 83.9233C54.7351 83.0521 55.0523 82.143 55.2038 81.196C55.4027 80.0123 55.3127 78.9659 54.9339 78.0568C54.5646 77.1383 53.9538 76.4233 53.1016 75.9119C52.2588 75.4006 51.2313 75.1449 50.0192 75.1449C48.7502 75.1449 47.5807 75.429 46.5107 75.9972C45.4406 76.5559 44.5457 77.3134 43.826 78.2699C43.1158 79.2263 42.6612 80.2964 42.4624 81.4801H40.7436C40.9898 79.9839 41.5627 78.6345 42.4624 77.4318C43.3714 76.2292 44.4983 75.2775 45.843 74.5767C47.1877 73.8665 48.6508 73.5114 50.2322 73.5114C51.7663 73.5114 53.0779 73.8475 54.1669 74.5199C55.2559 75.1922 56.0466 76.1108 56.5391 77.2756C57.0315 78.4309 57.1546 79.7377 56.9084 81.196C56.7379 82.2756 56.3875 83.3125 55.8572 84.3068C55.3269 85.2917 54.5173 86.3949 53.4283 87.6165C52.3487 88.8286 50.8904 90.3201 49.0533 92.0909L39.6357 101.196L39.6214 101.352H54.8913L54.6072 103H36.7805ZM63.3075 103.185C62.8719 103.185 62.5168 103.038 62.2422 102.744C61.9676 102.441 61.835 102.077 61.8445 101.651C61.8634 101.234 62.0291 100.879 62.3416 100.585C62.6636 100.292 63.0329 100.145 63.4496 100.145C63.8757 100.145 64.2308 100.296 64.5149 100.599C64.8085 100.893 64.9411 101.243 64.9126 101.651C64.8937 101.935 64.8085 102.195 64.657 102.432C64.5149 102.669 64.3208 102.853 64.0746 102.986C63.8378 103.118 63.5821 103.185 63.3075 103.185ZM78.8935 103.398C76.9522 103.398 75.3849 102.806 74.1918 101.622C73.008 100.429 72.2315 98.715 71.8622 96.4801C71.4929 94.2453 71.5639 91.5701 72.0753 88.4545C72.5866 85.358 73.3963 82.6922 74.5043 80.4574C75.6217 78.2225 76.9711 76.5085 78.5526 75.3153C80.1435 74.1127 81.9048 73.5114 83.8366 73.5114C85.7779 73.5114 87.3499 74.1127 88.5526 75.3153C89.7552 76.5085 90.5459 78.2225 90.9247 80.4574C91.3035 82.6828 91.2325 85.3485 90.7116 88.4545C90.2003 91.5701 89.3859 94.2453 88.2685 96.4801C87.151 98.7055 85.7969 100.415 84.206 101.608C82.6151 102.801 80.8442 103.398 78.8935 103.398ZM79.1065 101.75C81.4361 101.75 83.4863 100.599 85.2571 98.2983C87.0279 95.9972 88.2685 92.7159 88.9787 88.4545C89.4332 85.7178 89.5279 83.3551 89.2628 81.3665C88.9976 79.3778 88.3963 77.8437 87.4588 76.7642C86.5213 75.6847 85.2571 75.1449 83.6662 75.1449C81.3366 75.1449 79.2865 76.3049 77.5156 78.625C75.7543 80.9356 74.5232 84.2121 73.8224 88.4545C73.3679 91.1913 73.2637 93.554 73.5099 95.5426C73.7656 97.5312 74.3622 99.0653 75.2997 100.145C76.2372 101.215 77.5062 101.75 79.1065 101.75Z" fill="#FBFBFB"/>
<path d="M19 27.5568L18.0145 27.3869L17.8128 28.5568H19V27.5568ZM19.2841 25.9091V24.9091H18.4418L18.2986 25.7392L19.2841 25.9091ZM39.6676 25.9091L40.6531 26.079L40.8548 24.9091H39.6676V25.9091ZM39.3835 27.5568V28.5568H40.2259L40.369 27.7267L39.3835 27.5568ZM30.0795 27.5568V26.5568H29.2316L29.093 27.3934L30.0795 27.5568ZM25.5341 55V56H26.3821L26.5207 55.1634L25.5341 55ZM23.7585 55L22.772 54.8366L22.5793 56H23.7585V55ZM28.304 27.5568L29.2905 27.7202L29.4832 26.5568H28.304V27.5568ZM19.9855 27.7267L20.2696 26.079L18.2986 25.7392L18.0145 27.3869L19.9855 27.7267ZM19.2841 26.9091H39.6676V24.9091H19.2841V26.9091ZM38.6822 25.7392L38.3981 27.3869L40.369 27.7267L40.6531 26.079L38.6822 25.7392ZM39.3835 26.5568H30.0795V28.5568H39.3835V26.5568ZM29.093 27.3934L24.5475 54.8366L26.5207 55.1634L31.0661 27.7202L29.093 27.3934ZM25.5341 54H23.7585V56H25.5341V54ZM24.7451 55.1634L29.2905 27.7202L27.3174 27.3934L22.772 54.8366L24.7451 55.1634ZM28.304 26.5568H19V28.5568H28.304V26.5568ZM38.4318 55L37.4454 54.8356L37.2514 56H38.4318V55ZM42.0682 33.1818V32.1818H41.2211L41.0818 33.0174L42.0682 33.1818ZM43.7585 33.1818L44.7449 33.3462L44.939 32.1818H43.7585V33.1818ZM43.1903 36.5909L42.2039 36.4265L42.0099 37.5909H43.1903V36.5909ZM43.3466 36.5909V37.5909H43.9245L44.213 37.0902L43.3466 36.5909ZM46.1875 33.9062L46.6612 34.787L46.6664 34.7841L46.1875 33.9062ZM51.1023 32.8977L52.088 33.066L52.2745 31.9737L51.1688 31.8999L51.1023 32.8977ZM50.804 34.6449L50.7209 35.6414L51.6353 35.7176L51.7897 34.8132L50.804 34.6449ZM50.392 34.6023L50.2078 35.5851L50.2413 35.5914L50.2752 35.5954L50.392 34.6023ZM46.4574 35.3409L46.9079 36.2337L46.9079 36.2337L46.4574 35.3409ZM43.8722 37.5L44.6682 38.1053L44.6712 38.1013L43.8722 37.5ZM42.5511 40.625L43.5376 40.7888L43.5384 40.7842L42.5511 40.625ZM40.1648 55V56H41.0125L41.1513 55.1638L40.1648 55ZM39.4182 55.1644L43.0546 33.3462L41.0818 33.0174L37.4454 54.8356L39.4182 55.1644ZM42.0682 34.1818H43.7585V32.1818H42.0682V34.1818ZM42.7721 33.0174L42.2039 36.4265L44.1767 36.7553L44.7449 33.3462L42.7721 33.0174ZM43.1903 37.5909H43.3466V35.5909H43.1903V37.5909ZM44.213 37.0902C44.7549 36.1499 45.558 35.3803 46.6612 34.7869L45.7138 33.0256C44.317 33.7769 43.2262 34.797 42.4802 36.0916L44.213 37.0902ZM46.6664 34.7841C47.7678 34.1834 48.9476 33.8835 50.2216 33.8835V31.8835C48.6168 31.8835 47.1072 32.2655 45.7086 33.0284L46.6664 34.7841ZM50.2216 33.8835C50.2219 33.8835 50.2222 33.8835 50.2225 33.8835C50.2228 33.8835 50.2232 33.8835 50.2235 33.8835C50.2238 33.8835 50.2241 33.8835 50.2244 33.8835C50.2247 33.8835 50.225 33.8835 50.2254 33.8835C50.2257 33.8835 50.226 33.8835 50.2263 33.8835C50.2266 33.8835 50.2269 33.8835 50.2272 33.8835C50.2276 33.8835 50.2279 33.8835 50.2282 33.8835C50.2285 33.8835 50.2288 33.8835 50.2291 33.8835C50.2294 33.8835 50.2298 33.8835 50.2301 33.8835C50.2304 33.8835 50.2307 33.8835 50.231 33.8835C50.2313 33.8835 50.2316 33.8835 50.232 33.8835C50.2323 33.8835 50.2326 33.8835 50.2329 33.8835C50.2332 33.8835 50.2335 33.8835 50.2338 33.8835C50.2341 33.8835 50.2345 33.8835 50.2348 33.8835C50.2351 33.8835 50.2354 33.8835 50.2357 33.8835C50.236 33.8835 50.2363 33.8835 50.2367 33.8835C50.237 33.8835 50.2373 33.8835 50.2376 33.8835C50.2379 33.8835 50.2382 33.8835 50.2385 33.8835C50.2388 33.8835 50.2392 33.8835 50.2395 33.8835C50.2398 33.8835 50.2401 33.8835 50.2404 33.8835C50.2407 33.8835 50.241 33.8835 50.2414 33.8835C50.2417 33.8835 50.242 33.8835 50.2423 33.8835C50.2426 33.8835 50.2429 33.8835 50.2432 33.8835C50.2435 33.8835 50.2439 33.8835 50.2442 33.8835C50.2445 33.8835 50.2448 33.8835 50.2451 33.8835C50.2454 33.8835 50.2457 33.8835 50.246 33.8835C50.2464 33.8835 50.2467 33.8835 50.247 33.8835C50.2473 33.8835 50.2476 33.8835 50.2479 33.8835C50.2482 33.8835 50.2485 33.8835 50.2489 33.8835C50.2492 33.8835 50.2495 33.8835 50.2498 33.8835C50.2501 33.8835 50.2504 33.8835 50.2507 33.8835C50.251 33.8835 50.2514 33.8835 50.2517 33.8835C50.252 33.8835 50.2523 33.8835 50.2526 33.8835C50.2529 33.8835 50.2532 33.8835 50.2535 33.8835C50.2538 33.8835 50.2542 33.8835 50.2545 33.8835C50.2548 33.8835 50.2551 33.8835 50.2554 33.8835C50.2557 33.8835 50.256 33.8835 50.2563 33.8835C50.2567 33.8835 50.257 33.8835 50.2573 33.8835C50.2576 33.8835 50.2579 33.8835 50.2582 33.8835C50.2585 33.8835 50.2588 33.8835 50.2591 33.8835C50.2595 33.8835 50.2598 33.8835 50.2601 33.8835C50.2604 33.8835 50.2607 33.8835 50.261 33.8835C50.2613 33.8835 50.2616 33.8835 50.262 33.8835C50.2623 33.8835 50.2626 33.8835 50.2629 33.8835C50.2632 33.8835 50.2635 33.8835 50.2638 33.8835C50.2641 33.8835 50.2644 33.8835 50.2648 33.8835C50.2651 33.8835 50.2654 33.8835 50.2657 33.8835C50.266 33.8835 50.2663 33.8835 50.2666 33.8835C50.2669 33.8835 50.2672 33.8835 50.2676 33.8835C50.2679 33.8835 50.2682 33.8835 50.2685 33.8835C50.2688 33.8835 50.2691 33.8835 50.2694 33.8835C50.2697 33.8835 50.27 33.8835 50.2703 33.8835C50.2707 33.8835 50.271 33.8835 50.2713 33.8835C50.2716 33.8835 50.2719 33.8835 50.2722 33.8835C50.2725 33.8835 50.2728 33.8835 50.2731 33.8835C50.2735 33.8835 50.2738 33.8835 50.2741 33.8835C50.2744 33.8835 50.2747 33.8835 50.275 33.8835C50.2753 33.8835 50.2756 33.8835 50.2759 33.8835C50.2762 33.8835 50.2766 33.8835 50.2769 33.8835C50.2772 33.8835 50.2775 33.8835 50.2778 33.8835C50.2781 33.8835 50.2784 33.8835 50.2787 33.8835C50.279 33.8835 50.2793 33.8835 50.2797 33.8835C50.28 33.8835 50.2803 33.8835 50.2806 33.8835C50.2809 33.8835 50.2812 33.8835 50.2815 33.8835C50.2818 33.8835 50.2821 33.8835 50.2824 33.8835C50.2828 33.8835 50.2831 33.8835 50.2834 33.8835C50.2837 33.8835 50.284 33.8835 50.2843 33.8835C50.2846 33.8835 50.2849 33.8835 50.2852 33.8835C50.2855 33.8835 50.2859 33.8835 50.2862 33.8835C50.2865 33.8835 50.2868 33.8835 50.2871 33.8835C50.2874 33.8835 50.2877 33.8835 50.288 33.8835C50.2883 33.8835 50.2886 33.8835 50.2889 33.8835C50.2893 33.8835 50.2896 33.8835 50.2899 33.8835C50.2902 33.8835 50.2905 33.8835 50.2908 33.8835C50.2911 33.8835 50.2914 33.8835 50.2917 33.8835C50.292 33.8835 50.2923 33.8835 50.2927 33.8835C50.293 33.8835 50.2933 33.8835 50.2936 33.8835C50.2939 33.8835 50.2942 33.8835 50.2945 33.8835C50.2948 33.8835 50.2951 33.8835 50.2954 33.8835C50.2957 33.8835 50.2961 33.8835 50.2964 33.8835C50.2967 33.8835 50.297 33.8835 50.2973 33.8835C50.2976 33.8835 50.2979 33.8835 50.2982 33.8835C50.2985 33.8835 50.2988 33.8835 50.2991 33.8835C50.2994 33.8835 50.2998 33.8835 50.3001 33.8835C50.3004 33.8835 50.3007 33.8835 50.301 33.8835C50.3013 33.8835 50.3016 33.8835 50.3019 33.8835C50.3022 33.8835 50.3025 33.8835 50.3028 33.8835C50.3031 33.8835 50.3035 33.8835 50.3038 33.8835C50.3041 33.8835 50.3044 33.8835 50.3047 33.8835C50.305 33.8835 50.3053 33.8835 50.3056 33.8835C50.3059 33.8835 50.3062 33.8835 50.3065 33.8835C50.3068 33.8835 50.3071 33.8835 50.3075 33.8835C50.3078 33.8835 50.3081 33.8835 50.3084 33.8835C50.3087 33.8835 50.309 33.8835 50.3093 33.8835C50.3096 33.8835 50.3099 33.8835 50.3102 33.8835C50.3105 33.8835 50.3108 33.8835 50.3111 33.8835C50.3115 33.8835 50.3118 33.8835 50.3121 33.8835C50.3124 33.8835 50.3127 33.8835 50.313 33.8835C50.3133 33.8835 50.3136 33.8835 50.3139 33.8835C50.3142 33.8835 50.3145 33.8835 50.3148 33.8835C50.3151 33.8835 50.3154 33.8835 50.3158 33.8835C50.3161 33.8835 50.3164 33.8835 50.3167 33.8835C50.317 33.8835 50.3173 33.8835 50.3176 33.8835C50.3179 33.8835 50.3182 33.8835 50.3185 33.8835C50.3188 33.8835 50.3191 33.8835 50.3194 33.8835C50.3197 33.8835 50.3201 33.8835 50.3204 33.8835C50.3207 33.8835 50.321 33.8835 50.3213 33.8835C50.3216 33.8835 50.3219 33.8835 50.3222 33.8835C50.3225 33.8835 50.3228 33.8835 50.3231 33.8835C50.3234 33.8835 50.3237 33.8835 50.324 33.8835C50.3243 33.8835 50.3247 33.8835 50.325 33.8835C50.3253 33.8835 50.3256 33.8835 50.3259 33.8835C50.3262 33.8835 50.3265 33.8835 50.3268 33.8835C50.3271 33.8835 50.3274 33.8835 50.3277 33.8835C50.328 33.8835 50.3283 33.8835 50.3286 33.8835C50.3289 33.8835 50.3292 33.8835 50.3296 33.8835C50.3299 33.8835 50.3302 33.8835 50.3305 33.8835C50.3308 33.8835 50.3311 33.8835 50.3314 33.8835C50.3317 33.8835 50.332 33.8835 50.3323 33.8835C50.3326 33.8835 50.3329 33.8835 50.3332 33.8835C50.3335 33.8835 50.3338 33.8835 50.3341 33.8835C50.3344 33.8835 50.3348 33.8835 50.3351 33.8835C50.3354 33.8835 50.3357 33.8835 50.336 33.8835C50.3363 33.8835 50.3366 33.8835 50.3369 33.8835C50.3372 33.8835 50.3375 33.8835 50.3378 33.8835C50.3381 33.8835 50.3384 33.8835 50.3387 33.8835C50.339 33.8835 50.3393 33.8835 50.3396 33.8835C50.3399 33.8835 50.3402 33.8835 50.3406 33.8835C50.3409 33.8835 50.3412 33.8835 50.3415 33.8835C50.3418 33.8835 50.3421 33.8835 50.3424 33.8835C50.3427 33.8835 50.343 33.8835 50.3433 33.8835C50.3436 33.8835 50.3439 33.8835 50.3442 33.8835C50.3445 33.8835 50.3448 33.8835 50.3451 33.8835C50.3454 33.8835 50.3457 33.8835 50.346 33.8835C50.3463 33.8835 50.3467 33.8835 50.347 33.8835C50.3473 33.8835 50.3476 33.8835 50.3479 33.8835C50.3482 33.8835 50.3485 33.8835 50.3488 33.8835C50.3491 33.8835 50.3494 33.8835 50.3497 33.8835C50.35 33.8835 50.3503 33.8835 50.3506 33.8835C50.3509 33.8835 50.3512 33.8835 50.3515 33.8835C50.3518 33.8835 50.3521 33.8835 50.3524 33.8835C50.3527 33.8835 50.353 33.8835 50.3534 33.8835C50.3537 33.8835 50.354 33.8835 50.3543 33.8835C50.3546 33.8835 50.3549 33.8835 50.3552 33.8835C50.3555 33.8835 50.3558 33.8835 50.3561 33.8835C50.3564 33.8835 50.3567 33.8835 50.357 33.8835C50.3573 33.8835 50.3576 33.8835 50.3579 33.8835C50.3582 33.8835 50.3585 33.8835 50.3588 33.8835C50.3591 33.8835 50.3594 33.8835 50.3597 33.8835C50.36 33.8835 50.3603 33.8835 50.3606 33.8835C50.3609 33.8835 50.3613 33.8835 50.3616 33.8835C50.3619 33.8835 50.3622 33.8835 50.3625 33.8835C50.3628 33.8835 50.3631 33.8835 50.3634 33.8835C50.3637 33.8835 50.364 33.8835 50.3643 33.8835C50.3646 33.8835 50.3649 33.8835 50.3652 33.8835C50.3655 33.8835 50.3658 33.8835 50.3661 33.8835C50.3664 33.8835 50.3667 33.8835 50.367 33.8835C50.3673 33.8835 50.3676 33.8835 50.3679 33.8835C50.3682 33.8835 50.3685 33.8835 50.3688 33.8835C50.3691 33.8835 50.3694 33.8835 50.3697 33.8835C50.37 33.8835 50.3703 33.8835 50.3706 33.8835C50.371 33.8835 50.3713 33.8835 50.3716 33.8835C50.3719 33.8835 50.3722 33.8835 50.3725 33.8835C50.3728 33.8835 50.3731 33.8835 50.3734 33.8835C50.3737 33.8835 50.374 33.8835 50.3743 33.8835C50.3746 33.8835 50.3749 33.8835 50.3752 33.8835C50.3755 33.8835 50.3758 33.8835 50.3761 33.8835C50.3764 33.8835 50.3767 33.8835 50.377 33.8835C50.3773 33.8835 50.3776 33.8835 50.3779 33.8835C50.3782 33.8835 50.3785 33.8835 50.3788 33.8835C50.3791 33.8835 50.3794 33.8835 50.3797 33.8835C50.38 33.8835 50.3803 33.8835 50.3806 33.8835C50.3809 33.8835 50.3812 33.8835 50.3815 33.8835C50.3818 33.8835 50.3821 33.8835 50.3824 33.8835C50.3827 33.8835 50.383 33.8835 50.3833 33.8835C50.3836 33.8835 50.3839 33.8835 50.3842 33.8835C50.3846 33.8835 50.3849 33.8835 50.3852 33.8835C50.3855 33.8835 50.3858 33.8835 50.3861 33.8835C50.3864 33.8835 50.3867 33.8835 50.387 33.8835C50.3873 33.8835 50.3876 33.8835 50.3879 33.8835C50.3882 33.8835 50.3885 33.8835 50.3888 33.8835C50.3891 33.8835 50.3894 33.8835 50.3897 33.8835C50.39 33.8835 50.3903 33.8835 50.3906 33.8835C50.3909 33.8835 50.3912 33.8835 50.3915 33.8835C50.3918 33.8835 50.3921 33.8835 50.3924 33.8835C50.3927 33.8835 50.393 33.8835 50.3933 33.8835C50.3936 33.8835 50.3939 33.8835 50.3942 33.8835C50.3945 33.8835 50.3948 33.8835 50.3951 33.8835C50.3954 33.8835 50.3957 33.8835 50.396 33.8835C50.3963 33.8835 50.3966 33.8835 50.3969 33.8835C50.3972 33.8835 50.3975 33.8835 50.3978 33.8835C50.3981 33.8835 50.3984 33.8835 50.3987 33.8835C50.399 33.8835 50.3993 33.8835 50.3996 33.8835C50.3999 33.8835 50.4002 33.8835 50.4005 33.8835C50.4008 33.8835 50.4011 33.8835 50.4014 33.8835C50.4017 33.8835 50.402 33.8835 50.4023 33.8835C50.4026 33.8835 50.4029 33.8835 50.4032 33.8835C50.4035 33.8835 50.4038 33.8835 50.4041 33.8835C50.4044 33.8835 50.4047 33.8835 50.405 33.8835C50.4053 33.8835 50.4056 33.8835 50.4059 33.8835C50.4062 33.8835 50.4065 33.8835 50.4068 33.8835C50.4071 33.8835 50.4074 33.8835 50.4077 33.8835C50.408 33.8835 50.4083 33.8835 50.4086 33.8835C50.4089 33.8835 50.4092 33.8835 50.4095 33.8835C50.4098 33.8835 50.4101 33.8835 50.4104 33.8835C50.4107 33.8835 50.411 33.8835 50.4113 33.8835C50.4116 33.8835 50.4119 33.8835 50.4122 33.8835C50.4125 33.8835 50.4128 33.8835 50.4131 33.8835C50.4134 33.8835 50.4137 33.8835 50.414 33.8835C50.4143 33.8835 50.4146 33.8835 50.4149 33.8835C50.4152 33.8835 50.4155 33.8835 50.4158 33.8835C50.4161 33.8835 50.4164 33.8835 50.4167 33.8835C50.417 33.8835 50.4173 33.8835 50.4176 33.8835C50.4179 33.8835 50.4182 33.8835 50.4185 33.8835C50.4188 33.8835 50.4191 33.8835 50.4194 33.8835C50.4197 33.8835 50.42 33.8835 50.4203 33.8835C50.4206 33.8835 50.4209 33.8835 50.4212 33.8835C50.4215 33.8835 50.4218 33.8835 50.4221 33.8835C50.4224 33.8835 50.4227 33.8835 50.423 33.8835C50.4233 33.8835 50.4236 33.8835 50.4239 33.8835C50.4242 33.8835 50.4245 33.8835 50.4248 33.8835C50.4251 33.8835 50.4254 33.8835 50.4257 33.8835C50.426 33.8835 50.4263 33.8835 50.4266 33.8835C50.4268 33.8835 50.4271 33.8835 50.4274 33.8835C50.4277 33.8835 50.428 33.8835 50.4283 33.8835C50.4286 33.8835 50.4289 33.8835 50.4292 33.8835C50.4295 33.8835 50.4298 33.8835 50.4301 33.8835C50.4304 33.8835 50.4307 33.8835 50.431 33.8835C50.4313 33.8835 50.4316 33.8835 50.4319 33.8835C50.4322 33.8835 50.4325 33.8835 50.4328 33.8835C50.4331 33.8835 50.4334 33.8835 50.4337 33.8835C50.434 33.8835 50.4343 33.8835 50.4346 33.8835C50.4349 33.8835 50.4352 33.8835 50.4355 33.8835C50.4358 33.8835 50.4361 33.8835 50.4364 33.8835C50.4367 33.8835 50.437 33.8835 50.4373 33.8835C50.4376 33.8835 50.4379 33.8835 50.4382 33.8835C50.4385 33.8835 50.4388 33.8835 50.4391 33.8835C50.4394 33.8835 50.4397 33.8835 50.44 33.8835C50.4402 33.8835 50.4405 33.8835 50.4408 33.8835C50.4411 33.8835 50.4414 33.8835 50.4417 33.8835C50.442 33.8835 50.4423 33.8835 50.4426 33.8835C50.4429 33.8835 50.4432 33.8835 50.4435 33.8835C50.4438 33.8835 50.4441 33.8835 50.4444 33.8835C50.4447 33.8835 50.445 33.8835 50.4453 33.8835C50.4456 33.8835 50.4459 33.8835 50.4462 33.8835C50.4465 33.8835 50.4468 33.8835 50.4471 33.8835C50.4474 33.8835 50.4477 33.8835 50.448 33.8835C50.4483 33.8835 50.4486 33.8835 50.4489 33.8835C50.4492 33.8835 50.4495 33.8835 50.4497 33.8835C50.45 33.8835 50.4503 33.8835 50.4506 33.8835C50.4509 33.8835 50.4512 33.8835 50.4515 33.8835C50.4518 33.8835 50.4521 33.8835 50.4524 33.8835C50.4527 33.8835 50.453 33.8835 50.4533 33.8835C50.4536 33.8835 50.4539 33.8835 50.4542 33.8835C50.4545 33.8835 50.4548 33.8835 50.4551 33.8835C50.4554 33.8835 50.4557 33.8835 50.456 33.8835C50.4563 33.8835 50.4566 33.8835 50.4569 33.8835C50.4571 33.8835 50.4574 33.8835 50.4577 33.8835C50.458 33.8835 50.4583 33.8835 50.4586 33.8835C50.4589 33.8835 50.4592 33.8835 50.4595 33.8835C50.4598 33.8835 50.4601 33.8835 50.4604 33.8835C50.4607 33.8835 50.461 33.8835 50.4613 33.8835C50.4616 33.8835 50.4619 33.8835 50.4622 33.8835C50.4625 33.8835 50.4628 33.8835 50.4631 33.8835C50.4634 33.8835 50.4637 33.8835 50.4639 33.8835C50.4642 33.8835 50.4645 33.8835 50.4648 33.8835C50.4651 33.8835 50.4654 33.8835 50.4657 33.8835C50.466 33.8835 50.4663 33.8835 50.4666 33.8835C50.4669 33.8835 50.4672 33.8835 50.4675 33.8835C50.4678 33.8835 50.4681 33.8835 50.4684 33.8835C50.4687 33.8835 50.469 33.8835 50.4693 33.8835C50.4696 33.8835 50.4698 33.8835 50.4701 33.8835C50.4704 33.8835 50.4707 33.8835 50.471 33.8835C50.4713 33.8835 50.4716 33.8835 50.4719 33.8835C50.4722 33.8835 50.4725 33.8835 50.4728 33.8835C50.4731 33.8835 50.4734 33.8835 50.4737 33.8835C50.474 33.8835 50.4743 33.8835 50.4746 33.8835C50.4749 33.8835 50.4752 33.8835 50.4754 33.8835C50.4757 33.8835 50.476 33.8835 50.4763 33.8835C50.4766 33.8835 50.4769 33.8835 50.4772 33.8835C50.4775 33.8835 50.4778 33.8835 50.4781 33.8835C50.4784 33.8835 50.4787 33.8835 50.479 33.8835C50.4793 33.8835 50.4796 33.8835 50.4799 33.8835C50.4802 33.8835 50.4804 33.8835 50.4807 33.8835C50.481 33.8835 50.4813 33.8835 50.4816 33.8835C50.4819 33.8835 50.4822 33.8835 50.4825 33.8835C50.4828 33.8835 50.4831 33.8835 50.4834 33.8835C50.4837 33.8835 50.484 33.8835 50.4843 33.8835C50.4846 33.8835 50.4849 33.8835 50.4851 33.8835C50.4854 33.8835 50.4857 33.8835 50.486 33.8835C50.4863 33.8835 50.4866 33.8835 50.4869 33.8835C50.4872 33.8835 50.4875 33.8835 50.4878 33.8835C50.4881 33.8835 50.4884 33.8835 50.4887 33.8835C50.489 33.8835 50.4893 33.8835 50.4895 33.8835C50.4898 33.8835 50.4901 33.8835 50.4904 33.8835C50.4907 33.8835 50.491 33.8835 50.4913 33.8835C50.4916 33.8835 50.4919 33.8835 50.4922 33.8835C50.4925 33.8835 50.4928 33.8835 50.4931 33.8835C50.4934 33.8835 50.4936 33.8835 50.4939 33.8835C50.4942 33.8835 50.4945 33.8835 50.4948 33.8835C50.4951 33.8835 50.4954 33.8835 50.4957 33.8835C50.496 33.8835 50.4963 33.8835 50.4966 33.8835C50.4969 33.8835 50.4972 33.8835 50.4975 33.8835C50.4977 33.8835 50.498 33.8835 50.4983 33.8835C50.4986 33.8835 50.4989 33.8835 50.4992 33.8835C50.4995 33.8835 50.4998 33.8835 50.5001 33.8835C50.5004 33.8835 50.5007 33.8835 50.501 33.8835C50.5013 33.8835 50.5015 33.8835 50.5018 33.8835C50.5021 33.8835 50.5024 33.8835 50.5027 33.8835C50.503 33.8835 50.5033 33.8835 50.5036 33.8835C50.5039 33.8835 50.5042 33.8835 50.5045 33.8835C50.5048 33.8835 50.5051 33.8835 50.5053 33.8835C50.5056 33.8835 50.5059 33.8835 50.5062 33.8835C50.5065 33.8835 50.5068 33.8835 50.5071 33.8835C50.5074 33.8835 50.5077 33.8835 50.508 33.8835C50.5083 33.8835 50.5086 33.8835 50.5088 33.8835C50.5091 33.8835 50.5094 33.8835 50.5097 33.8835C50.51 33.8835 50.5103 33.8835 50.5106 33.8835C50.5109 33.8835 50.5112 33.8835 50.5115 33.8835C50.5118 33.8835 50.512 33.8835 50.5123 33.8835C50.5126 33.8835 50.5129 33.8835 50.5132 33.8835C50.5135 33.8835 50.5138 33.8835 50.5141 33.8835C50.5144 33.8835 50.5147 33.8835 50.515 33.8835C50.5153 33.8835 50.5155 33.8835 50.5158 33.8835C50.5161 33.8835 50.5164 33.8835 50.5167 33.8835C50.517 33.8835 50.5173 33.8835 50.5176 33.8835C50.5179 33.8835 50.5182 33.8835 50.5185 33.8835C50.5187 33.8835 50.519 33.8835 50.5193 33.8835C50.5196 33.8835 50.5199 33.8835 50.5202 33.8835C50.5205 33.8835 50.5208 33.8835 50.5211 33.8835C50.5214 33.8835 50.5216 33.8835 50.5219 33.8835C50.5222 33.8835 50.5225 33.8835 50.5228 33.8835C50.5231 33.8835 50.5234 33.8835 50.5237 33.8835C50.524 33.8835 50.5243 33.8835 50.5246 33.8835C50.5248 33.8835 50.5251 33.8835 50.5254 33.8835C50.5257 33.8835 50.526 33.8835 50.5263 33.8835C50.5266 33.8835 50.5269 33.8835 50.5272 33.8835C50.5275 33.8835 50.5277 33.8835 50.528 33.8835C50.5283 33.8835 50.5286 33.8835 50.5289 33.8835C50.5292 33.8835 50.5295 33.8835 50.5298 33.8835C50.5301 33.8835 50.5304 33.8835 50.5306 33.8835C50.5309 33.8835 50.5312 33.8835 50.5315 33.8835C50.5318 33.8835 50.5321 33.8835 50.5324 33.8835C50.5327 33.8835 50.533 33.8835 50.5333 33.8835C50.5335 33.8835 50.5338 33.8835 50.5341 33.8835C50.5344 33.8835 50.5347 33.8835 50.535 33.8835C50.5353 33.8835 50.5356 33.8835 50.5359 33.8835C50.5361 33.8835 50.5364 33.8835 50.5367 33.8835C50.537 33.8835 50.5373 33.8835 50.5376 33.8835C50.5379 33.8835 50.5382 33.8835 50.5385 33.8835C50.5387 33.8835 50.539 33.8835 50.5393 33.8835C50.5396 33.8835 50.5399 33.8835 50.5402 33.8835C50.5405 33.8835 50.5408 33.8835 50.5411 33.8835C50.5414 33.8835 50.5416 33.8835 50.5419 33.8835C50.5422 33.8835 50.5425 33.8835 50.5428 33.8835C50.5431 33.8835 50.5434 33.8835 50.5437 33.8835C50.5439 33.8835 50.5442 33.8835 50.5445 33.8835C50.5448 33.8835 50.5451 33.8835 50.5454 33.8835C50.5457 33.8835 50.546 33.8835 50.5463 33.8835C50.5465 33.8835 50.5468 33.8835 50.5471 33.8835C50.5474 33.8835 50.5477 33.8835 50.548 33.8835C50.5483 33.8835 50.5486 33.8835 50.5489 33.8835C50.5491 33.8835 50.5494 33.8835 50.5497 33.8835C50.55 33.8835 50.5503 33.8835 50.5506 33.8835C50.5509 33.8835 50.5512 33.8835 50.5514 33.8835C50.5517 33.8835 50.552 33.8835 50.5523 33.8835C50.5526 33.8835 50.5529 33.8835 50.5532 33.8835C50.5535 33.8835 50.5538 33.8835 50.554 33.8835C50.5543 33.8835 50.5546 33.8835 50.5549 33.8835C50.5552 33.8835 50.5555 33.8835 50.5558 33.8835C50.5561 33.8835 50.5563 33.8835 50.5566 33.8835C50.5569 33.8835 50.5572 33.8835 50.5575 33.8835C50.5578 33.8835 50.5581 33.8835 50.5584 33.8835C50.5586 33.8835 50.5589 33.8835 50.5592 33.8835C50.5595 33.8835 50.5598 33.8835 50.5601 33.8835C50.5604 33.8835 50.5607 33.8835 50.5609 33.8835C50.5612 33.8835 50.5615 33.8835 50.5618 33.8835C50.5621 33.8835 50.5624 33.8835 50.5627 33.8835C50.5629 33.8835 50.5632 33.8835 50.5635 33.8835C50.5638 33.8835 50.5641 33.8835 50.5644 33.8835C50.5647 33.8835 50.565 33.8835 50.5652 33.8835C50.5655 33.8835 50.5658 33.8835 50.5661 33.8835C50.5664 33.8835 50.5667 33.8835 50.567 33.8835C50.5673 33.8835 50.5675 33.8835 50.5678 33.8835C50.5681 33.8835 50.5684 33.8835 50.5687 33.8835C50.569 33.8835 50.5693 33.8835 50.5695 33.8835C50.5698 33.8835 50.5701 33.8835 50.5704 33.8835C50.5707 33.8835 50.571 33.8835 50.5713 33.8835C50.5716 33.8835 50.5718 33.8835 50.5721 33.8835C50.5724 33.8835 50.5727 33.8835 50.573 33.8835C50.5733 33.8835 50.5736 33.8835 50.5738 33.8835C50.5741 33.8835 50.5744 33.8835 50.5747 33.8835C50.575 33.8835 50.5753 33.8835 50.5756 33.8835C50.5758 33.8835 50.5761 33.8835 50.5764 33.8835C50.5767 33.8835 50.577 33.8835 50.5773 33.8835C50.5776 33.8835 50.5778 33.8835 50.5781 33.8835C50.5784 33.8835 50.5787 33.8835 50.579 33.8835C50.5793 33.8835 50.5796 33.8835 50.5798 33.8835C50.5801 33.8835 50.5804 33.8835 50.5807 33.8835C50.581 33.8835 50.5813 33.8835 50.5816 33.8835C50.5818 33.8835 50.5821 33.8835 50.5824 33.8835C50.5827 33.8835 50.583 33.8835 50.5833 33.8835C50.5836 33.8835 50.5838 33.8835 50.5841 33.8835C50.5844 33.8835 50.5847 33.8835 50.585 33.8835C50.5853 33.8835 50.5856 33.8835 50.5858 33.8835C50.5861 33.8835 50.5864 33.8835 50.5867 33.8835C50.587 33.8835 50.5873 33.8835 50.5876 33.8835C50.5878 33.8835 50.5881 33.8835 50.5884 33.8835C50.5887 33.8835 50.589 33.8835 50.5893 33.8835C50.5895 33.8835 50.5898 33.8835 50.5901 33.8835C50.5904 33.8835 50.5907 33.8835 50.591 33.8835C50.5913 33.8835 50.5915 33.8835 50.5918 33.8835C50.5921 33.8835 50.5924 33.8835 50.5927 33.8835C50.593 33.8835 50.5932 33.8835 50.5935 33.8835C50.5938 33.8835 50.5941 33.8835 50.5944 33.8835C50.5947 33.8835 50.595 33.8835 50.5952 33.8835C50.5955 33.8835 50.5958 33.8835 50.5961 33.8835C50.5964 33.8835 50.5967 33.8835 50.5969 33.8835C50.5972 33.8835 50.5975 33.8835 50.5978 33.8835C50.5981 33.8835 50.5984 33.8835 50.5986 33.8835C50.5989 33.8835 50.5992 33.8835 50.5995 33.8835C50.5998 33.8835 50.6001 33.8835 50.6004 33.8835C50.6006 33.8835 50.6009 33.8835 50.6012 33.8835C50.6015 33.8835 50.6018 33.8835 50.6021 33.8835C50.6023 33.8835 50.6026 33.8835 50.6029 33.8835C50.6032 33.8835 50.6035 33.8835 50.6038 33.8835C50.604 33.8835 50.6043 33.8835 50.6046 33.8835C50.6049 33.8835 50.6052 33.8835 50.6055 33.8835C50.6057 33.8835 50.606 33.8835 50.6063 33.8835C50.6066 33.8835 50.6069 33.8835 50.6072 33.8835C50.6074 33.8835 50.6077 33.8835 50.608 33.8835C50.6083 33.8835 50.6086 33.8835 50.6089 33.8835C50.6091 33.8835 50.6094 33.8835 50.6097 33.8835C50.61 33.8835 50.6103 33.8835 50.6106 33.8835C50.6108 33.8835 50.6111 33.8835 50.6114 33.8835C50.6117 33.8835 50.612 33.8835 50.6123 33.8835C50.6125 33.8835 50.6128 33.8835 50.6131 33.8835C50.6134 33.8835 50.6137 33.8835 50.614 33.8835C50.6142 33.8835 50.6145 33.8835 50.6148 33.8835C50.6151 33.8835 50.6154 33.8835 50.6156 33.8835C50.6159 33.8835 50.6162 33.8835 50.6165 33.8835C50.6168 33.8835 50.6171 33.8835 50.6173 33.8835C50.6176 33.8835 50.6179 33.8835 50.6182 33.8835C50.6185 33.8835 50.6188 33.8835 50.619 33.8835C50.6193 33.8835 50.6196 33.8835 50.6199 33.8835C50.6202 33.8835 50.6205 33.8835 50.6207 33.8835C50.621 33.8835 50.6213 33.8835 50.6216 33.8835C50.6219 33.8835 50.6221 33.8835 50.6224 33.8835C50.6227 33.8835 50.623 33.8835 50.6233 33.8835C50.6236 33.8835 50.6238 33.8835 50.6241 33.8835C50.6244 33.8835 50.6247 33.8835 50.625 33.8835C50.6252 33.8835 50.6255 33.8835 50.6258 33.8835C50.6261 33.8835 50.6264 33.8835 50.6267 33.8835C50.6269 33.8835 50.6272 33.8835 50.6275 33.8835C50.6278 33.8835 50.6281 33.8835 50.6283 33.8835C50.6286 33.8835 50.6289 33.8835 50.6292 33.8835C50.6295 33.8835 50.6298 33.8835 50.63 33.8835C50.6303 33.8835 50.6306 33.8835 50.6309 33.8835C50.6312 33.8835 50.6314 33.8835 50.6317 33.8835C50.632 33.8835 50.6323 33.8835 50.6326 33.8835C50.6328 33.8835 50.6331 33.8835 50.6334 33.8835C50.6337 33.8835 50.634 33.8835 50.6343 33.8835C50.6345 33.8835 50.6348 33.8835 50.6351 33.8835C50.6354 33.8835 50.6357 33.8835 50.6359 33.8835C50.6362 33.8835 50.6365 33.8835 50.6368 33.8835C50.6371 33.8835 50.6373 33.8835 50.6376 33.8835C50.6379 33.8835 50.6382 33.8835 50.6385 33.8835C50.6387 33.8835 50.639 33.8835 50.6393 33.8835C50.6396 33.8835 50.6399 33.8835 50.6401 33.8835C50.6404 33.8835 50.6407 33.8835 50.641 33.8835C50.6413 33.8835 50.6415 33.8835 50.6418 33.8835C50.6421 33.8835 50.6424 33.8835 50.6427 33.8835C50.643 33.8835 50.6432 33.8835 50.6435 33.8835C50.6438 33.8835 50.6441 33.8835 50.6444 33.8835C50.6446 33.8835 50.6449 33.8835 50.6452 33.8835C50.6455 33.8835 50.6458 33.8835 50.646 33.8835C50.6463 33.8835 50.6466 33.8835 50.6469 33.8835C50.6472 33.8835 50.6474 33.8835 50.6477 33.8835C50.648 33.8835 50.6483 33.8835 50.6486 33.8835C50.6488 33.8835 50.6491 33.8835 50.6494 33.8835C50.6497 33.8835 50.65 33.8835 50.6502 33.8835C50.6505 33.8835 50.6508 33.8835 50.6511 33.8835C50.6513 33.8835 50.6516 33.8835 50.6519 33.8835C50.6522 33.8835 50.6525 33.8835 50.6527 33.8835C50.653 33.8835 50.6533 33.8835 50.6536 33.8835C50.6539 33.8835 50.6541 33.8835 50.6544 33.8835C50.6547 33.8835 50.655 33.8835 50.6553 33.8835C50.6555 33.8835 50.6558 33.8835 50.6561 33.8835C50.6564 33.8835 50.6567 33.8835 50.6569 33.8835C50.6572 33.8835 50.6575 33.8835 50.6578 33.8835C50.6581 33.8835 50.6583 33.8835 50.6586 33.8835C50.6589 33.8835 50.6592 33.8835 50.6594 33.8835C50.6597 33.8835 50.66 33.8835 50.6603 33.8835C50.6606 33.8835 50.6608 33.8835 50.6611 33.8835C50.6614 33.8835 50.6617 33.8835 50.662 33.8835C50.6622 33.8835 50.6625 33.8835 50.6628 33.8835C50.6631 33.8835 50.6633 33.8835 50.6636 33.8835C50.6639 33.8835 50.6642 33.8835 50.6645 33.8835C50.6647 33.8835 50.665 33.8835 50.6653 33.8835C50.6656 33.8835 50.6659 33.8835 50.6661 33.8835C50.6664 33.8835 50.6667 33.8835 50.667 33.8835C50.6672 33.8835 50.6675 33.8835 50.6678 33.8835C50.6681 33.8835 50.6684 33.8835 50.6686 33.8835C50.6689 33.8835 50.6692 33.8835 50.6695 33.8835C50.6697 33.8835 50.67 33.8835 50.6703 33.8835C50.6706 33.8835 50.6709 33.8835 50.6711 33.8835C50.6714 33.8835 50.6717 33.8835 50.672 33.8835C50.6722 33.8835 50.6725 33.8835 50.6728 33.8835C50.6731 33.8835 50.6734 33.8835 50.6736 33.8835C50.6739 33.8835 50.6742 33.8835 50.6745 33.8835C50.6747 33.8835 50.675 33.8835 50.6753 33.8835C50.6756 33.8835 50.6759 33.8835 50.6761 33.8835V31.8835C50.6759 31.8835 50.6756 31.8835 50.6753 31.8835C50.675 31.8835 50.6747 31.8835 50.6745 31.8835C50.6742 31.8835 50.6739 31.8835 50.6736 31.8835C50.6734 31.8835 50.6731 31.8835 50.6728 31.8835C50.6725 31.8835 50.6722 31.8835 50.672 31.8835C50.6717 31.8835 50.6714 31.8835 50.6711 31.8835C50.6709 31.8835 50.6706 31.8835 50.6703 31.8835C50.67 31.8835 50.6697 31.8835 50.6695 31.8835C50.6692 31.8835 50.6689 31.8835 50.6686 31.8835C50.6684 31.8835 50.6681 31.8835 50.6678 31.8835C50.6675 31.8835 50.6672 31.8835 50.667 31.8835C50.6667 31.8835 50.6664 31.8835 50.6661 31.8835C50.6659 31.8835 50.6656 31.8835 50.6653 31.8835C50.665 31.8835 50.6647 31.8835 50.6645 31.8835C50.6642 31.8835 50.6639 31.8835 50.6636 31.8835C50.6633 31.8835 50.6631 31.8835 50.6628 31.8835C50.6625 31.8835 50.6622 31.8835 50.662 31.8835C50.6617 31.8835 50.6614 31.8835 50.6611 31.8835C50.6608 31.8835 50.6606 31.8835 50.6603 31.8835C50.66 31.8835 50.6597 31.8835 50.6594 31.8835C50.6592 31.8835 50.6589 31.8835 50.6586 31.8835C50.6583 31.8835 50.6581 31.8835 50.6578 31.8835C50.6575 31.8835 50.6572 31.8835 50.6569 31.8835C50.6567 31.8835 50.6564 31.8835 50.6561 31.8835C50.6558 31.8835 50.6555 31.8835 50.6553 31.8835C50.655 31.8835 50.6547 31.8835 50.6544 31.8835C50.6541 31.8835 50.6539 31.8835 50.6536 31.8835C50.6533 31.8835 50.653 31.8835 50.6527 31.8835C50.6525 31.8835 50.6522 31.8835 50.6519 31.8835C50.6516 31.8835 50.6513 31.8835 50.6511 31.8835C50.6508 31.8835 50.6505 31.8835 50.6502 31.8835C50.65 31.8835 50.6497 31.8835 50.6494 31.8835C50.6491 31.8835 50.6488 31.8835 50.6486 31.8835C50.6483 31.8835 50.648 31.8835 50.6477 31.8835C50.6474 31.8835 50.6472 31.8835 50.6469 31.8835C50.6466 31.8835 50.6463 31.8835 50.646 31.8835C50.6458 31.8835 50.6455 31.8835 50.6452 31.8835C50.6449 31.8835 50.6446 31.8835 50.6444 31.8835C50.6441 31.8835 50.6438 31.8835 50.6435 31.8835C50.6432 31.8835 50.643 31.8835 50.6427 31.8835C50.6424 31.8835 50.6421 31.8835 50.6418 31.8835C50.6415 31.8835 50.6413 31.8835 50.641 31.8835C50.6407 31.8835 50.6404 31.8835 50.6401 31.8835C50.6399 31.8835 50.6396 31.8835 50.6393 31.8835C50.639 31.8835 50.6387 31.8835 50.6385 31.8835C50.6382 31.8835 50.6379 31.8835 50.6376 31.8835C50.6373 31.8835 50.6371 31.8835 50.6368 31.8835C50.6365 31.8835 50.6362 31.8835 50.6359 31.8835C50.6357 31.8835 50.6354 31.8835 50.6351 31.8835C50.6348 31.8835 50.6345 31.8835 50.6343 31.8835C50.634 31.8835 50.6337 31.8835 50.6334 31.8835C50.6331 31.8835 50.6328 31.8835 50.6326 31.8835C50.6323 31.8835 50.632 31.8835 50.6317 31.8835C50.6314 31.8835 50.6312 31.8835 50.6309 31.8835C50.6306 31.8835 50.6303 31.8835 50.63 31.8835C50.6298 31.8835 50.6295 31.8835 50.6292 31.8835C50.6289 31.8835 50.6286 31.8835 50.6283 31.8835C50.6281 31.8835 50.6278 31.8835 50.6275 31.8835C50.6272 31.8835 50.6269 31.8835 50.6267 31.8835C50.6264 31.8835 50.6261 31.8835 50.6258 31.8835C50.6255 31.8835 50.6252 31.8835 50.625 31.8835C50.6247 31.8835 50.6244 31.8835 50.6241 31.8835C50.6238 31.8835 50.6236 31.8835 50.6233 31.8835C50.623 31.8835 50.6227 31.8835 50.6224 31.8835C50.6221 31.8835 50.6219 31.8835 50.6216 31.8835C50.6213 31.8835 50.621 31.8835 50.6207 31.8835C50.6205 31.8835 50.6202 31.8835 50.6199 31.8835C50.6196 31.8835 50.6193 31.8835 50.619 31.8835C50.6188 31.8835 50.6185 31.8835 50.6182 31.8835C50.6179 31.8835 50.6176 31.8835 50.6173 31.8835C50.6171 31.8835 50.6168 31.8835 50.6165 31.8835C50.6162 31.8835 50.6159 31.8835 50.6156 31.8835C50.6154 31.8835 50.6151 31.8835 50.6148 31.8835C50.6145 31.8835 50.6142 31.8835 50.614 31.8835C50.6137 31.8835 50.6134 31.8835 50.6131 31.8835C50.6128 31.8835 50.6125 31.8835 50.6123 31.8835C50.612 31.8835 50.6117 31.8835 50.6114 31.8835C50.6111 31.8835 50.6108 31.8835 50.6106 31.8835C50.6103 31.8835 50.61 31.8835 50.6097 31.8835C50.6094 31.8835 50.6091 31.8835 50.6089 31.8835C50.6086 31.8835 50.6083 31.8835 50.608 31.8835C50.6077 31.8835 50.6074 31.8835 50.6072 31.8835C50.6069 31.8835 50.6066 31.8835 50.6063 31.8835C50.606 31.8835 50.6057 31.8835 50.6055 31.8835C50.6052 31.8835 50.6049 31.8835 50.6046 31.8835C50.6043 31.8835 50.604 31.8835 50.6038 31.8835C50.6035 31.8835 50.6032 31.8835 50.6029 31.8835C50.6026 31.8835 50.6023 31.8835 50.6021 31.8835C50.6018 31.8835 50.6015 31.8835 50.6012 31.8835C50.6009 31.8835 50.6006 31.8835 50.6004 31.8835C50.6001 31.8835 50.5998 31.8835 50.5995 31.8835C50.5992 31.8835 50.5989 31.8835 50.5986 31.8835C50.5984 31.8835 50.5981 31.8835 50.5978 31.8835C50.5975 31.8835 50.5972 31.8835 50.5969 31.8835C50.5967 31.8835 50.5964 31.8835 50.5961 31.8835C50.5958 31.8835 50.5955 31.8835 50.5952 31.8835C50.595 31.8835 50.5947 31.8835 50.5944 31.8835C50.5941 31.8835 50.5938 31.8835 50.5935 31.8835C50.5932 31.8835 50.593 31.8835 50.5927 31.8835C50.5924 31.8835 50.5921 31.8835 50.5918 31.8835C50.5915 31.8835 50.5913 31.8835 50.591 31.8835C50.5907 31.8835 50.5904 31.8835 50.5901 31.8835C50.5898 31.8835 50.5895 31.8835 50.5893 31.8835C50.589 31.8835 50.5887 31.8835 50.5884 31.8835C50.5881 31.8835 50.5878 31.8835 50.5876 31.8835C50.5873 31.8835 50.587 31.8835 50.5867 31.8835C50.5864 31.8835 50.5861 31.8835 50.5858 31.8835C50.5856 31.8835 50.5853 31.8835 50.585 31.8835C50.5847 31.8835 50.5844 31.8835 50.5841 31.8835C50.5838 31.8835 50.5836 31.8835 50.5833 31.8835C50.583 31.8835 50.5827 31.8835 50.5824 31.8835C50.5821 31.8835 50.5818 31.8835 50.5816 31.8835C50.5813 31.8835 50.581 31.8835 50.5807 31.8835C50.5804 31.8835 50.5801 31.8835 50.5798 31.8835C50.5796 31.8835 50.5793 31.8835 50.579 31.8835C50.5787 31.8835 50.5784 31.8835 50.5781 31.8835C50.5778 31.8835 50.5776 31.8835 50.5773 31.8835C50.577 31.8835 50.5767 31.8835 50.5764 31.8835C50.5761 31.8835 50.5758 31.8835 50.5756 31.8835C50.5753 31.8835 50.575 31.8835 50.5747 31.8835C50.5744 31.8835 50.5741 31.8835 50.5738 31.8835C50.5736 31.8835 50.5733 31.8835 50.573 31.8835C50.5727 31.8835 50.5724 31.8835 50.5721 31.8835C50.5718 31.8835 50.5716 31.8835 50.5713 31.8835C50.571 31.8835 50.5707 31.8835 50.5704 31.8835C50.5701 31.8835 50.5698 31.8835 50.5695 31.8835C50.5693 31.8835 50.569 31.8835 50.5687 31.8835C50.5684 31.8835 50.5681 31.8835 50.5678 31.8835C50.5675 31.8835 50.5673 31.8835 50.567 31.8835C50.5667 31.8835 50.5664 31.8835 50.5661 31.8835C50.5658 31.8835 50.5655 31.8835 50.5652 31.8835C50.565 31.8835 50.5647 31.8835 50.5644 31.8835C50.5641 31.8835 50.5638 31.8835 50.5635 31.8835C50.5632 31.8835 50.5629 31.8835 50.5627 31.8835C50.5624 31.8835 50.5621 31.8835 50.5618 31.8835C50.5615 31.8835 50.5612 31.8835 50.5609 31.8835C50.5607 31.8835 50.5604 31.8835 50.5601 31.8835C50.5598 31.8835 50.5595 31.8835 50.5592 31.8835C50.5589 31.8835 50.5586 31.8835 50.5584 31.8835C50.5581 31.8835 50.5578 31.8835 50.5575 31.8835C50.5572 31.8835 50.5569 31.8835 50.5566 31.8835C50.5563 31.8835 50.5561 31.8835 50.5558 31.8835C50.5555 31.8835 50.5552 31.8835 50.5549 31.8835C50.5546 31.8835 50.5543 31.8835 50.554 31.8835C50.5538 31.8835 50.5535 31.8835 50.5532 31.8835C50.5529 31.8835 50.5526 31.8835 50.5523 31.8835C50.552 31.8835 50.5517 31.8835 50.5514 31.8835C50.5512 31.8835 50.5509 31.8835 50.5506 31.8835C50.5503 31.8835 50.55 31.8835 50.5497 31.8835C50.5494 31.8835 50.5491 31.8835 50.5489 31.8835C50.5486 31.8835 50.5483 31.8835 50.548 31.8835C50.5477 31.8835 50.5474 31.8835 50.5471 31.8835C50.5468 31.8835 50.5465 31.8835 50.5463 31.8835C50.546 31.8835 50.5457 31.8835 50.5454 31.8835C50.5451 31.8835 50.5448 31.8835 50.5445 31.8835C50.5442 31.8835 50.5439 31.8835 50.5437 31.8835C50.5434 31.8835 50.5431 31.8835 50.5428 31.8835C50.5425 31.8835 50.5422 31.8835 50.5419 31.8835C50.5416 31.8835 50.5414 31.8835 50.5411 31.8835C50.5408 31.8835 50.5405 31.8835 50.5402 31.8835C50.5399 31.8835 50.5396 31.8835 50.5393 31.8835C50.539 31.8835 50.5387 31.8835 50.5385 31.8835C50.5382 31.8835 50.5379 31.8835 50.5376 31.8835C50.5373 31.8835 50.537 31.8835 50.5367 31.8835C50.5364 31.8835 50.5361 31.8835 50.5359 31.8835C50.5356 31.8835 50.5353 31.8835 50.535 31.8835C50.5347 31.8835 50.5344 31.8835 50.5341 31.8835C50.5338 31.8835 50.5335 31.8835 50.5333 31.8835C50.533 31.8835 50.5327 31.8835 50.5324 31.8835C50.5321 31.8835 50.5318 31.8835 50.5315 31.8835C50.5312 31.8835 50.5309 31.8835 50.5306 31.8835C50.5304 31.8835 50.5301 31.8835 50.5298 31.8835C50.5295 31.8835 50.5292 31.8835 50.5289 31.8835C50.5286 31.8835 50.5283 31.8835 50.528 31.8835C50.5277 31.8835 50.5275 31.8835 50.5272 31.8835C50.5269 31.8835 50.5266 31.8835 50.5263 31.8835C50.526 31.8835 50.5257 31.8835 50.5254 31.8835C50.5251 31.8835 50.5248 31.8835 50.5246 31.8835C50.5243 31.8835 50.524 31.8835 50.5237 31.8835C50.5234 31.8835 50.5231 31.8835 50.5228 31.8835C50.5225 31.8835 50.5222 31.8835 50.5219 31.8835C50.5216 31.8835 50.5214 31.8835 50.5211 31.8835C50.5208 31.8835 50.5205 31.8835 50.5202 31.8835C50.5199 31.8835 50.5196 31.8835 50.5193 31.8835C50.519 31.8835 50.5187 31.8835 50.5185 31.8835C50.5182 31.8835 50.5179 31.8835 50.5176 31.8835C50.5173 31.8835 50.517 31.8835 50.5167 31.8835C50.5164 31.8835 50.5161 31.8835 50.5158 31.8835C50.5155 31.8835 50.5153 31.8835 50.515 31.8835C50.5147 31.8835 50.5144 31.8835 50.5141 31.8835C50.5138 31.8835 50.5135 31.8835 50.5132 31.8835C50.5129 31.8835 50.5126 31.8835 50.5123 31.8835C50.512 31.8835 50.5118 31.8835 50.5115 31.8835C50.5112 31.8835 50.5109 31.8835 50.5106 31.8835C50.5103 31.8835 50.51 31.8835 50.5097 31.8835C50.5094 31.8835 50.5091 31.8835 50.5088 31.8835C50.5086 31.8835 50.5083 31.8835 50.508 31.8835C50.5077 31.8835 50.5074 31.8835 50.5071 31.8835C50.5068 31.8835 50.5065 31.8835 50.5062 31.8835C50.5059 31.8835 50.5056 31.8835 50.5053 31.8835C50.5051 31.8835 50.5048 31.8835 50.5045 31.8835C50.5042 31.8835 50.5039 31.8835 50.5036 31.8835C50.5033 31.8835 50.503 31.8835 50.5027 31.8835C50.5024 31.8835 50.5021 31.8835 50.5018 31.8835C50.5015 31.8835 50.5013 31.8835 50.501 31.8835C50.5007 31.8835 50.5004 31.8835 50.5001 31.8835C50.4998 31.8835 50.4995 31.8835 50.4992 31.8835C50.4989 31.8835 50.4986 31.8835 50.4983 31.8835C50.498 31.8835 50.4977 31.8835 50.4975 31.8835C50.4972 31.8835 50.4969 31.8835 50.4966 31.8835C50.4963 31.8835 50.496 31.8835 50.4957 31.8835C50.4954 31.8835 50.4951 31.8835 50.4948 31.8835C50.4945 31.8835 50.4942 31.8835 50.4939 31.8835C50.4936 31.8835 50.4934 31.8835 50.4931 31.8835C50.4928 31.8835 50.4925 31.8835 50.4922 31.8835C50.4919 31.8835 50.4916 31.8835 50.4913 31.8835C50.491 31.8835 50.4907 31.8835 50.4904 31.8835C50.4901 31.8835 50.4898 31.8835 50.4895 31.8835C50.4893 31.8835 50.489 31.8835 50.4887 31.8835C50.4884 31.8835 50.4881 31.8835 50.4878 31.8835C50.4875 31.8835 50.4872 31.8835 50.4869 31.8835C50.4866 31.8835 50.4863 31.8835 50.486 31.8835C50.4857 31.8835 50.4854 31.8835 50.4851 31.8835C50.4849 31.8835 50.4846 31.8835 50.4843 31.8835C50.484 31.8835 50.4837 31.8835 50.4834 31.8835C50.4831 31.8835 50.4828 31.8835 50.4825 31.8835C50.4822 31.8835 50.4819 31.8835 50.4816 31.8835C50.4813 31.8835 50.481 31.8835 50.4807 31.8835C50.4804 31.8835 50.4802 31.8835 50.4799 31.8835C50.4796 31.8835 50.4793 31.8835 50.479 31.8835C50.4787 31.8835 50.4784 31.8835 50.4781 31.8835C50.4778 31.8835 50.4775 31.8835 50.4772 31.8835C50.4769 31.8835 50.4766 31.8835 50.4763 31.8835C50.476 31.8835 50.4757 31.8835 50.4754 31.8835C50.4752 31.8835 50.4749 31.8835 50.4746 31.8835C50.4743 31.8835 50.474 31.8835 50.4737 31.8835C50.4734 31.8835 50.4731 31.8835 50.4728 31.8835C50.4725 31.8835 50.4722 31.8835 50.4719 31.8835C50.4716 31.8835 50.4713 31.8835 50.471 31.8835C50.4707 31.8835 50.4704 31.8835 50.4701 31.8835C50.4698 31.8835 50.4696 31.8835 50.4693 31.8835C50.469 31.8835 50.4687 31.8835 50.4684 31.8835C50.4681 31.8835 50.4678 31.8835 50.4675 31.8835C50.4672 31.8835 50.4669 31.8835 50.4666 31.8835C50.4663 31.8835 50.466 31.8835 50.4657 31.8835C50.4654 31.8835 50.4651 31.8835 50.4648 31.8835C50.4645 31.8835 50.4642 31.8835 50.4639 31.8835C50.4637 31.8835 50.4634 31.8835 50.4631 31.8835C50.4628 31.8835 50.4625 31.8835 50.4622 31.8835C50.4619 31.8835 50.4616 31.8835 50.4613 31.8835C50.461 31.8835 50.4607 31.8835 50.4604 31.8835C50.4601 31.8835 50.4598 31.8835 50.4595 31.8835C50.4592 31.8835 50.4589 31.8835 50.4586 31.8835C50.4583 31.8835 50.458 31.8835 50.4577 31.8835C50.4574 31.8835 50.4571 31.8835 50.4569 31.8835C50.4566 31.8835 50.4563 31.8835 50.456 31.8835C50.4557 31.8835 50.4554 31.8835 50.4551 31.8835C50.4548 31.8835 50.4545 31.8835 50.4542 31.8835C50.4539 31.8835 50.4536 31.8835 50.4533 31.8835C50.453 31.8835 50.4527 31.8835 50.4524 31.8835C50.4521 31.8835 50.4518 31.8835 50.4515 31.8835C50.4512 31.8835 50.4509 31.8835 50.4506 31.8835C50.4503 31.8835 50.45 31.8835 50.4497 31.8835C50.4495 31.8835 50.4492 31.8835 50.4489 31.8835C50.4486 31.8835 50.4483 31.8835 50.448 31.8835C50.4477 31.8835 50.4474 31.8835 50.4471 31.8835C50.4468 31.8835 50.4465 31.8835 50.4462 31.8835C50.4459 31.8835 50.4456 31.8835 50.4453 31.8835C50.445 31.8835 50.4447 31.8835 50.4444 31.8835C50.4441 31.8835 50.4438 31.8835 50.4435 31.8835C50.4432 31.8835 50.4429 31.8835 50.4426 31.8835C50.4423 31.8835 50.442 31.8835 50.4417 31.8835C50.4414 31.8835 50.4411 31.8835 50.4408 31.8835C50.4405 31.8835 50.4402 31.8835 50.44 31.8835C50.4397 31.8835 50.4394 31.8835 50.4391 31.8835C50.4388 31.8835 50.4385 31.8835 50.4382 31.8835C50.4379 31.8835 50.4376 31.8835 50.4373 31.8835C50.437 31.8835 50.4367 31.8835 50.4364 31.8835C50.4361 31.8835 50.4358 31.8835 50.4355 31.8835C50.4352 31.8835 50.4349 31.8835 50.4346 31.8835C50.4343 31.8835 50.434 31.8835 50.4337 31.8835C50.4334 31.8835 50.4331 31.8835 50.4328 31.8835C50.4325 31.8835 50.4322 31.8835 50.4319 31.8835C50.4316 31.8835 50.4313 31.8835 50.431 31.8835C50.4307 31.8835 50.4304 31.8835 50.4301 31.8835C50.4298 31.8835 50.4295 31.8835 50.4292 31.8835C50.4289 31.8835 50.4286 31.8835 50.4283 31.8835C50.428 31.8835 50.4277 31.8835 50.4274 31.8835C50.4271 31.8835 50.4268 31.8835 50.4266 31.8835C50.4263 31.8835 50.426 31.8835 50.4257 31.8835C50.4254 31.8835 50.4251 31.8835 50.4248 31.8835C50.4245 31.8835 50.4242 31.8835 50.4239 31.8835C50.4236 31.8835 50.4233 31.8835 50.423 31.8835C50.4227 31.8835 50.4224 31.8835 50.4221 31.8835C50.4218 31.8835 50.4215 31.8835 50.4212 31.8835C50.4209 31.8835 50.4206 31.8835 50.4203 31.8835C50.42 31.8835 50.4197 31.8835 50.4194 31.8835C50.4191 31.8835 50.4188 31.8835 50.4185 31.8835C50.4182 31.8835 50.4179 31.8835 50.4176 31.8835C50.4173 31.8835 50.417 31.8835 50.4167 31.8835C50.4164 31.8835 50.4161 31.8835 50.4158 31.8835C50.4155 31.8835 50.4152 31.8835 50.4149 31.8835C50.4146 31.8835 50.4143 31.8835 50.414 31.8835C50.4137 31.8835 50.4134 31.8835 50.4131 31.8835C50.4128 31.8835 50.4125 31.8835 50.4122 31.8835C50.4119 31.8835 50.4116 31.8835 50.4113 31.8835C50.411 31.8835 50.4107 31.8835 50.4104 31.8835C50.4101 31.8835 50.4098 31.8835 50.4095 31.8835C50.4092 31.8835 50.4089 31.8835 50.4086 31.8835C50.4083 31.8835 50.408 31.8835 50.4077 31.8835C50.4074 31.8835 50.4071 31.8835 50.4068 31.8835C50.4065 31.8835 50.4062 31.8835 50.4059 31.8835C50.4056 31.8835 50.4053 31.8835 50.405 31.8835C50.4047 31.8835 50.4044 31.8835 50.4041 31.8835C50.4038 31.8835 50.4035 31.8835 50.4032 31.8835C50.4029 31.8835 50.4026 31.8835 50.4023 31.8835C50.402 31.8835 50.4017 31.8835 50.4014 31.8835C50.4011 31.8835 50.4008 31.8835 50.4005 31.8835C50.4002 31.8835 50.3999 31.8835 50.3996 31.8835C50.3993 31.8835 50.399 31.8835 50.3987 31.8835C50.3984 31.8835 50.3981 31.8835 50.3978 31.8835C50.3975 31.8835 50.3972 31.8835 50.3969 31.8835C50.3966 31.8835 50.3963 31.8835 50.396 31.8835C50.3957 31.8835 50.3954 31.8835 50.3951 31.8835C50.3948 31.8835 50.3945 31.8835 50.3942 31.8835C50.3939 31.8835 50.3936 31.8835 50.3933 31.8835C50.393 31.8835 50.3927 31.8835 50.3924 31.8835C50.3921 31.8835 50.3918 31.8835 50.3915 31.8835C50.3912 31.8835 50.3909 31.8835 50.3906 31.8835C50.3903 31.8835 50.39 31.8835 50.3897 31.8835C50.3894 31.8835 50.3891 31.8835 50.3888 31.8835C50.3885 31.8835 50.3882 31.8835 50.3879 31.8835C50.3876 31.8835 50.3873 31.8835 50.387 31.8835C50.3867 31.8835 50.3864 31.8835 50.3861 31.8835C50.3858 31.8835 50.3855 31.8835 50.3852 31.8835C50.3849 31.8835 50.3846 31.8835 50.3842 31.8835C50.3839 31.8835 50.3836 31.8835 50.3833 31.8835C50.383 31.8835 50.3827 31.8835 50.3824 31.8835C50.3821 31.8835 50.3818 31.8835 50.3815 31.8835C50.3812 31.8835 50.3809 31.8835 50.3806 31.8835C50.3803 31.8835 50.38 31.8835 50.3797 31.8835C50.3794 31.8835 50.3791 31.8835 50.3788 31.8835C50.3785 31.8835 50.3782 31.8835 50.3779 31.8835C50.3776 31.8835 50.3773 31.8835 50.377 31.8835C50.3767 31.8835 50.3764 31.8835 50.3761 31.8835C50.3758 31.8835 50.3755 31.8835 50.3752 31.8835C50.3749 31.8835 50.3746 31.8835 50.3743 31.8835C50.374 31.8835 50.3737 31.8835 50.3734 31.8835C50.3731 31.8835 50.3728 31.8835 50.3725 31.8835C50.3722 31.8835 50.3719 31.8835 50.3716 31.8835C50.3713 31.8835 50.371 31.8835 50.3706 31.8835C50.3703 31.8835 50.37 31.8835 50.3697 31.8835C50.3694 31.8835 50.3691 31.8835 50.3688 31.8835C50.3685 31.8835 50.3682 31.8835 50.3679 31.8835C50.3676 31.8835 50.3673 31.8835 50.367 31.8835C50.3667 31.8835 50.3664 31.8835 50.3661 31.8835C50.3658 31.8835 50.3655 31.8835 50.3652 31.8835C50.3649 31.8835 50.3646 31.8835 50.3643 31.8835C50.364 31.8835 50.3637 31.8835 50.3634 31.8835C50.3631 31.8835 50.3628 31.8835 50.3625 31.8835C50.3622 31.8835 50.3619 31.8835 50.3616 31.8835C50.3613 31.8835 50.3609 31.8835 50.3606 31.8835C50.3603 31.8835 50.36 31.8835 50.3597 31.8835C50.3594 31.8835 50.3591 31.8835 50.3588 31.8835C50.3585 31.8835 50.3582 31.8835 50.3579 31.8835C50.3576 31.8835 50.3573 31.8835 50.357 31.8835C50.3567 31.8835 50.3564 31.8835 50.3561 31.8835C50.3558 31.8835 50.3555 31.8835 50.3552 31.8835C50.3549 31.8835 50.3546 31.8835 50.3543 31.8835C50.354 31.8835 50.3537 31.8835 50.3534 31.8835C50.353 31.8835 50.3527 31.8835 50.3524 31.8835C50.3521 31.8835 50.3518 31.8835 50.3515 31.8835C50.3512 31.8835 50.3509 31.8835 50.3506 31.8835C50.3503 31.8835 50.35 31.8835 50.3497 31.8835C50.3494 31.8835 50.3491 31.8835 50.3488 31.8835C50.3485 31.8835 50.3482 31.8835 50.3479 31.8835C50.3476 31.8835 50.3473 31.8835 50.347 31.8835C50.3467 31.8835 50.3463 31.8835 50.346 31.8835C50.3457 31.8835 50.3454 31.8835 50.3451 31.8835C50.3448 31.8835 50.3445 31.8835 50.3442 31.8835C50.3439 31.8835 50.3436 31.8835 50.3433 31.8835C50.343 31.8835 50.3427 31.8835 50.3424 31.8835C50.3421 31.8835 50.3418 31.8835 50.3415 31.8835C50.3412 31.8835 50.3409 31.8835 50.3406 31.8835C50.3402 31.8835 50.3399 31.8835 50.3396 31.8835C50.3393 31.8835 50.339 31.8835 50.3387 31.8835C50.3384 31.8835 50.3381 31.8835 50.3378 31.8835C50.3375 31.8835 50.3372 31.8835 50.3369 31.8835C50.3366 31.8835 50.3363 31.8835 50.336 31.8835C50.3357 31.8835 50.3354 31.8835 50.3351 31.8835C50.3348 31.8835 50.3344 31.8835 50.3341 31.8835C50.3338 31.8835 50.3335 31.8835 50.3332 31.8835C50.3329 31.8835 50.3326 31.8835 50.3323 31.8835C50.332 31.8835 50.3317 31.8835 50.3314 31.8835C50.3311 31.8835 50.3308 31.8835 50.3305 31.8835C50.3302 31.8835 50.3299 31.8835 50.3296 31.8835C50.3292 31.8835 50.3289 31.8835 50.3286 31.8835C50.3283 31.8835 50.328 31.8835 50.3277 31.8835C50.3274 31.8835 50.3271 31.8835 50.3268 31.8835C50.3265 31.8835 50.3262 31.8835 50.3259 31.8835C50.3256 31.8835 50.3253 31.8835 50.325 31.8835C50.3247 31.8835 50.3243 31.8835 50.324 31.8835C50.3237 31.8835 50.3234 31.8835 50.3231 31.8835C50.3228 31.8835 50.3225 31.8835 50.3222 31.8835C50.3219 31.8835 50.3216 31.8835 50.3213 31.8835C50.321 31.8835 50.3207 31.8835 50.3204 31.8835C50.3201 31.8835 50.3197 31.8835 50.3194 31.8835C50.3191 31.8835 50.3188 31.8835 50.3185 31.8835C50.3182 31.8835 50.3179 31.8835 50.3176 31.8835C50.3173 31.8835 50.317 31.8835 50.3167 31.8835C50.3164 31.8835 50.3161 31.8835 50.3158 31.8835C50.3154 31.8835 50.3151 31.8835 50.3148 31.8835C50.3145 31.8835 50.3142 31.8835 50.3139 31.8835C50.3136 31.8835 50.3133 31.8835 50.313 31.8835C50.3127 31.8835 50.3124 31.8835 50.3121 31.8835C50.3118 31.8835 50.3115 31.8835 50.3111 31.8835C50.3108 31.8835 50.3105 31.8835 50.3102 31.8835C50.3099 31.8835 50.3096 31.8835 50.3093 31.8835C50.309 31.8835 50.3087 31.8835 50.3084 31.8835C50.3081 31.8835 50.3078 31.8835 50.3075 31.8835C50.3071 31.8835 50.3068 31.8835 50.3065 31.8835C50.3062 31.8835 50.3059 31.8835 50.3056 31.8835C50.3053 31.8835 50.305 31.8835 50.3047 31.8835C50.3044 31.8835 50.3041 31.8835 50.3038 31.8835C50.3035 31.8835 50.3031 31.8835 50.3028 31.8835C50.3025 31.8835 50.3022 31.8835 50.3019 31.8835C50.3016 31.8835 50.3013 31.8835 50.301 31.8835C50.3007 31.8835 50.3004 31.8835 50.3001 31.8835C50.2998 31.8835 50.2994 31.8835 50.2991 31.8835C50.2988 31.8835 50.2985 31.8835 50.2982 31.8835C50.2979 31.8835 50.2976 31.8835 50.2973 31.8835C50.297 31.8835 50.2967 31.8835 50.2964 31.8835C50.2961 31.8835 50.2957 31.8835 50.2954 31.8835C50.2951 31.8835 50.2948 31.8835 50.2945 31.8835C50.2942 31.8835 50.2939 31.8835 50.2936 31.8835C50.2933 31.8835 50.293 31.8835 50.2927 31.8835C50.2923 31.8835 50.292 31.8835 50.2917 31.8835C50.2914 31.8835 50.2911 31.8835 50.2908 31.8835C50.2905 31.8835 50.2902 31.8835 50.2899 31.8835C50.2896 31.8835 50.2893 31.8835 50.2889 31.8835C50.2886 31.8835 50.2883 31.8835 50.288 31.8835C50.2877 31.8835 50.2874 31.8835 50.2871 31.8835C50.2868 31.8835 50.2865 31.8835 50.2862 31.8835C50.2859 31.8835 50.2855 31.8835 50.2852 31.8835C50.2849 31.8835 50.2846 31.8835 50.2843 31.8835C50.284 31.8835 50.2837 31.8835 50.2834 31.8835C50.2831 31.8835 50.2828 31.8835 50.2824 31.8835C50.2821 31.8835 50.2818 31.8835 50.2815 31.8835C50.2812 31.8835 50.2809 31.8835 50.2806 31.8835C50.2803 31.8835 50.28 31.8835 50.2797 31.8835C50.2793 31.8835 50.279 31.8835 50.2787 31.8835C50.2784 31.8835 50.2781 31.8835 50.2778 31.8835C50.2775 31.8835 50.2772 31.8835 50.2769 31.8835C50.2766 31.8835 50.2762 31.8835 50.2759 31.8835C50.2756 31.8835 50.2753 31.8835 50.275 31.8835C50.2747 31.8835 50.2744 31.8835 50.2741 31.8835C50.2738 31.8835 50.2735 31.8835 50.2731 31.8835C50.2728 31.8835 50.2725 31.8835 50.2722 31.8835C50.2719 31.8835 50.2716 31.8835 50.2713 31.8835C50.271 31.8835 50.2707 31.8835 50.2703 31.8835C50.27 31.8835 50.2697 31.8835 50.2694 31.8835C50.2691 31.8835 50.2688 31.8835 50.2685 31.8835C50.2682 31.8835 50.2679 31.8835 50.2676 31.8835C50.2672 31.8835 50.2669 31.8835 50.2666 31.8835C50.2663 31.8835 50.266 31.8835 50.2657 31.8835C50.2654 31.8835 50.2651 31.8835 50.2648 31.8835C50.2644 31.8835 50.2641 31.8835 50.2638 31.8835C50.2635 31.8835 50.2632 31.8835 50.2629 31.8835C50.2626 31.8835 50.2623 31.8835 50.262 31.8835C50.2616 31.8835 50.2613 31.8835 50.261 31.8835C50.2607 31.8835 50.2604 31.8835 50.2601 31.8835C50.2598 31.8835 50.2595 31.8835 50.2591 31.8835C50.2588 31.8835 50.2585 31.8835 50.2582 31.8835C50.2579 31.8835 50.2576 31.8835 50.2573 31.8835C50.257 31.8835 50.2567 31.8835 50.2563 31.8835C50.256 31.8835 50.2557 31.8835 50.2554 31.8835C50.2551 31.8835 50.2548 31.8835 50.2545 31.8835C50.2542 31.8835 50.2538 31.8835 50.2535 31.8835C50.2532 31.8835 50.2529 31.8835 50.2526 31.8835C50.2523 31.8835 50.252 31.8835 50.2517 31.8835C50.2514 31.8835 50.251 31.8835 50.2507 31.8835C50.2504 31.8835 50.2501 31.8835 50.2498 31.8835C50.2495 31.8835 50.2492 31.8835 50.2489 31.8835C50.2485 31.8835 50.2482 31.8835 50.2479 31.8835C50.2476 31.8835 50.2473 31.8835 50.247 31.8835C50.2467 31.8835 50.2464 31.8835 50.246 31.8835C50.2457 31.8835 50.2454 31.8835 50.2451 31.8835C50.2448 31.8835 50.2445 31.8835 50.2442 31.8835C50.2439 31.8835 50.2435 31.8835 50.2432 31.8835C50.2429 31.8835 50.2426 31.8835 50.2423 31.8835C50.242 31.8835 50.2417 31.8835 50.2414 31.8835C50.241 31.8835 50.2407 31.8835 50.2404 31.8835C50.2401 31.8835 50.2398 31.8835 50.2395 31.8835C50.2392 31.8835 50.2388 31.8835 50.2385 31.8835C50.2382 31.8835 50.2379 31.8835 50.2376 31.8835C50.2373 31.8835 50.237 31.8835 50.2367 31.8835C50.2363 31.8835 50.236 31.8835 50.2357 31.8835C50.2354 31.8835 50.2351 31.8835 50.2348 31.8835C50.2345 31.8835 50.2341 31.8835 50.2338 31.8835C50.2335 31.8835 50.2332 31.8835 50.2329 31.8835C50.2326 31.8835 50.2323 31.8835 50.232 31.8835C50.2316 31.8835 50.2313 31.8835 50.231 31.8835C50.2307 31.8835 50.2304 31.8835 50.2301 31.8835C50.2298 31.8835 50.2294 31.8835 50.2291 31.8835C50.2288 31.8835 50.2285 31.8835 50.2282 31.8835C50.2279 31.8835 50.2276 31.8835 50.2272 31.8835C50.2269 31.8835 50.2266 31.8835 50.2263 31.8835C50.226 31.8835 50.2257 31.8835 50.2254 31.8835C50.225 31.8835 50.2247 31.8835 50.2244 31.8835C50.2241 31.8835 50.2238 31.8835 50.2235 31.8835C50.2232 31.8835 50.2228 31.8835 50.2225 31.8835C50.2222 31.8835 50.2219 31.8835 50.2216 31.8835V33.8835ZM50.6761 33.8835C50.7959 33.8835 50.9158 33.8875 51.0358 33.8955L51.1688 31.8999C51.0047 31.889 50.8404 31.8835 50.6761 31.8835V33.8835ZM50.1165 32.7294L49.8182 34.4766L51.7897 34.8132L52.088 33.066L50.1165 32.7294ZM50.887 33.6483C50.7883 33.6401 50.6629 33.6272 50.5089 33.6091L50.2752 35.5954C50.4432 35.6152 50.5924 35.6307 50.7209 35.6414L50.887 33.6483ZM50.5763 33.6194C50.3429 33.5756 50.0868 33.5597 49.8239 33.5597V35.5597C50.0154 35.5597 50.1382 35.5721 50.2078 35.5851L50.5763 33.6194ZM49.8239 33.5597C48.4631 33.5597 47.1856 33.8534 46.0069 34.4481L46.9079 36.2337C47.7936 35.7868 48.7604 35.5597 49.8239 35.5597V33.5597ZM46.0069 34.4481C44.8385 35.0377 43.8573 35.8568 43.0731 36.8987L44.6712 38.1013C45.2696 37.3061 46.0119 36.6858 46.9079 36.2337L46.0069 34.4481ZM43.0762 36.8947C42.2813 37.94 41.7783 39.1364 41.5639 40.4658L43.5384 40.7842C43.7027 39.7652 44.0805 38.8782 44.6682 38.1053L43.0762 36.8947ZM41.5646 40.4612L39.1783 54.8362L41.1513 55.1638L43.5376 40.7888L41.5646 40.4612ZM40.1648 54H38.4318V56H40.1648V54ZM54.9517 53.9915L55.5526 53.1922L55.5526 53.1922L54.9517 53.9915ZM52.2386 49.9858L53.196 49.697L53.196 49.697L52.2386 49.9858ZM52.0114 44.1903L52.9979 44.354L52.998 44.3533L52.0114 44.1903ZM54.1705 38.3665L53.3256 37.8314L53.3256 37.8314L54.1705 38.3665ZM58.1335 34.3324L57.6003 33.4864L57.6003 33.4864L58.1335 34.3324ZM66.5284 33.5938L66.088 34.4915L66.0913 34.4932L66.5284 33.5938ZM69.0852 35.7102L68.2862 36.3116L68.2892 36.3155L69.0852 35.7102ZM70.5199 39.0199L69.5401 39.2201L69.5401 39.2201L70.5199 39.0199ZM70.5199 43.3949L71.5033 43.576L71.5051 43.5663L71.5067 43.5565L70.5199 43.3949ZM70.321 44.4744V45.4744H71.1536L71.3045 44.6556L70.321 44.4744ZM53.0483 44.4744L52.0626 44.3057L51.8626 45.4744H53.0483V44.4744ZM53.3182 42.8977V41.8977H52.4748L52.3325 42.729L53.3182 42.8977ZM68.8438 42.8977V43.8977H69.6892L69.8298 43.0641L68.8438 42.8977ZM68.6165 38.6364L67.6657 38.9462L67.6664 38.9483L68.6165 38.6364ZM66.5426 35.5966L65.9265 36.3843L65.9303 36.3872L66.5426 35.5966ZM58.9574 35.7102L59.4947 36.5536L59.4963 36.5526L58.9574 35.7102ZM55.6619 38.9773L54.8325 38.4186L54.8299 38.4226L55.6619 38.9773ZM53.8438 43.4801L54.8256 43.6701L54.8271 43.662L53.8438 43.4801ZM53.6733 44.3608L52.6915 44.1708L52.6886 44.186L52.6861 44.2012L53.6733 44.3608ZM53.7869 49.3182L52.8202 49.5743L52.8223 49.5818L53.7869 49.3182ZM55.946 52.6562L55.338 53.4502L55.3426 53.4537L55.946 52.6562ZM63.2188 53.2528L63.6161 54.1705L63.6205 54.1686L63.2188 53.2528ZM65.5767 51.7756L64.9143 51.0263L64.909 51.0312L65.5767 51.7756ZM67.1108 50.0994L67.5178 49.186L66.7563 48.8467L66.2855 49.5347L67.1108 50.0994ZM68.5455 50.7386L69.4039 51.2515L69.982 50.2839L68.9524 49.8252L68.5455 50.7386ZM66.6705 52.9261L67.3327 53.6755L67.3375 53.6712L66.6705 52.9261ZM59.8523 54.4545C58.0519 54.4545 56.6423 54.0114 55.5526 53.1922L54.3508 54.7908C55.8558 55.9223 57.7133 56.4545 59.8523 56.4545V54.4545ZM55.5526 53.1922C54.441 52.3564 53.6518 51.2078 53.196 49.697L51.2813 50.2746C51.8482 52.1539 52.8677 53.6758 54.3508 54.7908L55.5526 53.1922ZM53.196 49.697C52.7383 48.1796 52.6572 46.4072 52.9979 44.354L51.0249 44.0266C50.6459 46.3106 50.7163 48.4018 51.2813 50.2746L53.196 49.697ZM52.998 44.3533C53.3381 42.2951 54.014 40.4826 55.0153 38.9015L53.3256 37.8314C52.1679 39.6595 51.4044 41.7296 51.0247 44.0273L52.998 44.3533ZM55.0153 38.9015C56.0228 37.3107 57.2412 36.0769 58.6667 35.1784L57.6003 33.4864C55.9009 34.5576 54.4772 36.0131 53.3256 37.8314L55.0153 38.9015ZM58.6667 35.1784C60.0732 34.2919 61.5745 33.8551 63.1903 33.8551V31.8551C61.1887 31.8551 59.3189 32.4032 57.6003 33.4864L58.6667 35.1784ZM63.1903 33.8551C64.2736 33.8551 65.2336 34.0724 66.088 34.4915L66.9688 32.696C65.8156 32.1302 64.5503 31.8551 63.1903 31.8551V33.8551ZM66.0913 34.4932C66.959 34.9149 67.6882 35.5169 68.2862 36.3115L69.8842 35.1089C69.0997 34.0664 68.1243 33.2575 66.9655 32.6943L66.0913 34.4932ZM68.2892 36.3155C68.8762 37.0874 69.3003 38.0465 69.5401 39.2201L71.4996 38.8196C71.2092 37.3986 70.6768 36.1512 69.8812 35.1049L68.2892 36.3155ZM69.5401 39.2201C69.7759 40.3736 69.7831 41.7063 69.533 43.2333L71.5067 43.5565C71.787 41.8448 71.7942 40.2609 71.4996 38.8196L69.5401 39.2201ZM69.5364 43.2137L69.3376 44.2933L71.3045 44.6556L71.5033 43.576L69.5364 43.2137ZM70.321 43.4744H53.0483V45.4744H70.321V43.4744ZM54.034 44.6431L54.3038 43.0664L52.3325 42.729L52.0626 44.3057L54.034 44.6431ZM53.3182 43.8977H68.8438V41.8977H53.3182V43.8977ZM69.8298 43.0641C70.1168 41.3629 70.0428 39.7747 69.5666 38.3244L67.6664 38.9483C68.0235 40.0359 68.101 41.2886 67.8577 42.7314L69.8298 43.0641ZM69.5673 38.3265C69.095 36.8775 68.2951 35.6891 67.1549 34.806L65.9303 36.3872C66.7219 37.0003 67.3046 37.8384 67.6657 38.9462L69.5673 38.3265ZM67.1587 34.8089C66.0012 33.9035 64.601 33.4744 63.0199 33.4744V35.4744C64.2229 35.4744 65.1712 35.7935 65.9265 36.3843L67.1587 34.8089ZM63.0199 33.4744C61.3938 33.4744 59.8545 33.9493 58.4185 34.8678L59.4963 36.5526C60.6361 35.8235 61.8051 35.4744 63.0199 35.4744V33.4744ZM58.4201 34.8668C57.0163 35.7611 55.8213 36.9507 54.8325 38.4186L56.4913 39.536C57.3397 38.2765 58.3417 37.2881 59.4947 36.5536L58.4201 34.8668ZM54.8299 38.4226C53.8444 39.9009 53.1877 41.529 52.8604 43.2982L54.8271 43.662C55.1059 42.1547 55.6613 40.781 56.494 39.532L54.8299 38.4226ZM52.862 43.2901L52.6915 44.1708L54.6551 44.5508L54.8255 43.6701L52.862 43.2901ZM52.6861 44.2012C52.3668 46.1769 52.3969 47.9761 52.8203 49.5743L54.7536 49.0621C54.4194 47.8004 54.3737 46.2947 54.6605 44.5203L52.6861 44.2012ZM52.8223 49.5818C53.2614 51.1883 54.0937 52.4974 55.338 53.4502L56.554 51.8623C55.696 51.2053 55.089 50.2889 54.7515 49.0545L52.8223 49.5818ZM55.3426 53.4537C56.6115 54.4139 58.2151 54.8494 60.0653 54.8494V52.8494C58.5254 52.8494 57.3828 52.4895 56.5495 51.8588L55.3426 53.4537ZM60.0653 54.8494C61.3612 54.8494 62.5514 54.6315 63.6161 54.1705L62.8214 52.3352C62.049 52.6696 61.137 52.8494 60.0653 52.8494V54.8494ZM63.6205 54.1686C64.6295 53.7259 65.5093 53.1794 66.2445 52.5199L64.909 51.0312C64.3562 51.527 63.6641 51.9654 62.817 52.3371L63.6205 54.1686ZM66.239 52.5248C66.9351 51.9095 67.5078 51.2901 67.9361 50.6641L66.2855 49.5347C65.9752 49.9883 65.5252 50.4864 64.9144 51.0264L66.239 52.5248ZM66.7038 51.0129L68.1385 51.6521L68.9524 49.8252L67.5178 49.186L66.7038 51.0129ZM67.687 50.2258C67.3155 50.8476 66.763 51.501 66.0034 52.1811L67.3375 53.6712C68.2067 52.893 68.9042 52.088 69.4039 51.2515L67.687 50.2258ZM66.0083 52.1768C65.286 52.8151 64.4017 53.3618 63.3417 53.8086L64.1185 55.6516C65.3502 55.1325 66.4262 54.4765 67.3327 53.6755L66.0083 52.1768ZM63.3417 53.8086C62.3366 54.2322 61.1791 54.4545 59.8523 54.4545V56.4545C61.4043 56.4545 62.8319 56.1939 64.1185 55.6516L63.3417 53.8086ZM81.1271 25.9091L82.1136 26.0729L82.3068 24.9091H81.1271V25.9091ZM76.2976 55V56H77.1453L77.2841 55.1638L76.2976 55ZM74.5646 55L73.5781 54.8362L73.3849 56H74.5646V55ZM79.3942 25.9091V24.9091H78.5465L78.4077 25.7453L79.3942 25.9091ZM80.1406 25.7453L75.3111 54.8362L77.2841 55.1638L82.1136 26.0729L80.1406 25.7453ZM76.2976 54H74.5646V56H76.2976V54ZM75.5511 55.1638L80.3807 26.0729L78.4077 25.7453L73.5781 54.8362L75.5511 55.1638ZM79.3942 26.9091H81.1271V24.9091H79.3942V26.9091ZM90.0334 25.9091L91.0199 26.0729L91.2131 24.9091H90.0334V25.9091ZM85.2038 55V56H86.0515L86.1903 55.1638L85.2038 55ZM83.4709 55L82.4844 54.8362L82.2912 56H83.4709V55ZM88.3004 25.9091V24.9091H87.4528L87.3139 25.7453L88.3004 25.9091ZM89.0469 25.7453L84.2173 54.8362L86.1903 55.1638L91.0199 26.0729L89.0469 25.7453ZM85.2038 54H83.4709V56H85.2038V54ZM84.4574 55.1638L89.2869 26.0729L87.3139 25.7453L82.4844 54.8362L84.4574 55.1638ZM88.3004 26.9091H90.0334V24.9091H88.3004V26.9091ZM95.9141 53.9915L95.2952 54.777L95.3018 54.7821L95.9141 53.9915ZM93.2436 49.929L94.1994 49.6349L94.1994 49.6349L93.2436 49.929ZM93.0021 44.0199L93.9885 44.1843L93.9885 44.1843L93.0021 44.0199ZM95.1328 38.267L94.2886 37.7311L94.2878 37.7323L95.1328 38.267ZM99.0533 34.304L99.58 35.154L99.5837 35.1517L99.0533 34.304ZM108.641 34.3466L108.019 35.1292L108.025 35.1343L108.641 34.3466ZM111.326 38.4233L110.37 38.7159L110.37 38.7174L111.326 38.4233ZM111.596 44.3182L112.582 44.4833L112.584 44.475L111.596 44.3182ZM109.437 50.071L108.595 49.5317L108.594 49.5329L109.437 50.071ZM105.516 54.0199L106.043 54.8699L106.043 54.8699L105.516 54.0199ZM104.849 52.5426L105.403 53.3747L105.403 53.3747L104.849 52.5426ZM108.13 49.0057L107.272 48.492L107.27 48.496L108.13 49.0057ZM109.906 44.0199L108.919 43.8572L108.918 43.8621L109.906 44.0199ZM109.778 39.1903L108.81 39.4433L108.811 39.4448L109.778 39.1903ZM107.746 35.7528L107.088 36.5059L107.093 36.5095L107.746 35.7528ZM99.7493 35.7955L99.1932 34.9643L99.1904 34.9662L99.7493 35.7955ZM96.4538 39.3466L97.3118 39.8603L97.3118 39.8603L96.4538 39.3466ZM94.6783 44.3182L95.664 44.4869L95.6656 44.4768L94.6783 44.3182ZM94.7919 49.1477L93.8244 49.4007L93.8264 49.4082L94.7919 49.1477ZM96.8374 52.5852L96.1793 53.3383L96.1872 53.345L96.8374 52.5852ZM100.531 54.4545C98.9012 54.4545 97.5863 54.0217 96.5264 53.2008L95.3018 54.7821C96.7608 55.912 98.5235 56.4545 100.531 56.4545V54.4545ZM96.5329 53.206C95.4633 52.3632 94.6782 51.191 94.1994 49.6349L92.2878 50.2231C92.8696 52.114 93.8649 53.65 95.2952 54.777L96.5329 53.206ZM94.1994 49.6349C93.7246 48.0918 93.6386 46.2839 93.9885 44.1843L92.0157 43.8555C91.627 46.1877 91.702 48.3192 92.2878 50.2231L94.1994 49.6349ZM93.9885 44.1843C94.3287 42.1431 94.9957 40.354 95.9778 38.8018L94.2878 37.7323C93.1488 39.5324 92.3952 41.5784 92.0157 43.8555L93.9885 44.1843ZM95.9771 38.803C96.9745 37.2319 98.1769 36.0234 99.58 35.154L98.5266 33.4539C96.8425 34.4974 95.4313 35.931 94.2886 37.7311L95.9771 38.803ZM99.5837 35.1517C100.973 34.2823 102.447 33.8551 104.025 33.8551V31.8551C102.061 31.8551 100.221 32.3938 98.5228 33.4563L99.5837 35.1517ZM104.025 33.8551C105.661 33.8551 106.971 34.2956 108.019 35.1292L109.264 33.564C107.812 32.409 106.044 31.8551 104.025 31.8551V33.8551ZM108.025 35.1343C109.102 35.9765 109.891 37.1518 110.37 38.7159L112.282 38.1307C111.7 36.2289 110.699 34.6864 109.257 33.5588L108.025 35.1343ZM110.37 38.7174C110.846 40.2643 110.94 42.0704 110.608 44.1613L112.584 44.475C112.952 42.1531 112.866 40.0293 112.282 38.1292L110.37 38.7174ZM110.61 44.1531C110.27 46.1814 109.595 47.9696 108.595 49.5317L110.279 50.6103C111.438 48.8012 112.202 46.7542 112.582 44.4833L110.61 44.1531ZM108.594 49.5329C107.597 51.0949 106.394 52.2996 104.99 53.1698L106.043 54.8699C107.726 53.8272 109.137 52.3994 110.28 50.6091L108.594 49.5329ZM104.99 53.1698C103.601 54.0303 102.121 54.4545 100.531 54.4545V56.4545C102.501 56.4545 104.345 55.9223 106.043 54.8699L104.99 53.1698ZM100.559 54.8494C102.312 54.8494 103.934 54.3541 105.403 53.3747L104.294 51.7106C103.149 52.4736 101.912 52.8494 100.559 52.8494V54.8494ZM105.403 53.3747C106.847 52.4122 108.041 51.118 108.99 49.5153L107.27 48.496C106.458 49.8668 105.464 50.9306 104.294 51.7106L105.403 53.3747ZM108.988 49.5194C109.948 47.9155 110.581 46.1313 110.893 44.1777L108.918 43.8621C108.643 45.5828 108.092 47.1224 107.272 48.492L108.988 49.5194ZM110.892 44.1826C111.204 42.2923 111.166 40.5371 110.745 38.9358L108.811 39.4448C109.147 40.7224 109.194 42.1869 108.919 43.8572L110.892 44.1826ZM110.745 38.9374C110.324 37.3253 109.552 35.9917 108.4 34.9962L107.093 36.5095C107.891 37.1996 108.474 38.1576 108.81 39.4433L110.745 38.9374ZM108.404 34.9998C107.219 33.9639 105.737 33.4744 104.039 33.4744V35.4744C105.333 35.4744 106.323 35.8372 107.088 36.5059L108.404 34.9998ZM104.039 33.4744C102.292 33.4744 100.67 33.9766 99.1932 34.9643L100.305 36.6266C101.462 35.853 102.699 35.4744 104.039 35.4744V33.4744ZM99.1904 34.9662C97.7503 35.9367 96.5538 37.233 95.5959 38.8329L97.3118 39.8603C98.1342 38.4867 99.1347 37.4155 100.308 36.6247L99.1904 34.9662ZM95.5959 38.8329C94.6361 40.436 94.0033 42.2151 93.6909 44.1596L95.6656 44.4768C95.9404 42.766 96.4913 41.2307 97.3118 39.8603L95.5959 38.8329ZM93.6926 44.1495C93.3703 46.033 93.4032 47.7895 93.8244 49.4007L95.7594 48.8948C95.423 47.6082 95.3802 46.145 95.6639 44.4869L93.6926 44.1495ZM93.8264 49.4082C94.2582 51.0089 95.0335 52.337 96.1794 53.3383L97.4953 51.8322C96.6905 51.1289 96.1021 50.1653 95.7574 48.8873L93.8264 49.4082ZM96.1872 53.345C97.3807 54.3664 98.8632 54.8494 100.559 54.8494V52.8494C99.2622 52.8494 98.2637 52.4897 97.4875 51.8255L96.1872 53.345ZM36.7805 103L35.7944 102.834L35.598 104H36.7805V103ZM37.0078 101.651L36.3117 100.933L36.0762 101.161L36.0217 101.484L37.0078 101.651ZM48.201 90.7983L47.5088 90.0766L47.5049 90.0803L48.201 90.7983ZM52.0788 86.8494L51.3368 86.179L51.3336 86.1826L52.0788 86.8494ZM54.2521 83.9233L53.3775 83.4384L53.3735 83.4458L54.2521 83.9233ZM55.2038 81.196L54.2176 81.0303L54.2164 81.038L55.2038 81.196ZM54.9339 78.0568L54.0061 78.4299L54.0109 78.4414L54.9339 78.0568ZM53.1016 75.9119L52.5828 76.7669L52.5871 76.7694L53.1016 75.9119ZM46.5107 75.9972L46.9735 76.8836L46.9796 76.8804L46.5107 75.9972ZM43.826 78.2699L43.0269 77.6686L43.0231 77.6737L43.826 78.2699ZM42.4624 81.4801V82.4801H43.3084L43.4485 81.6458L42.4624 81.4801ZM40.7436 81.4801L39.7569 81.3177L39.5656 82.4801H40.7436V81.4801ZM42.4624 77.4318L41.6646 76.8288L41.6616 76.8328L42.4624 77.4318ZM45.843 74.5767L46.3052 75.4635L46.3101 75.4609L45.843 74.5767ZM54.1669 74.5199L53.6416 75.3708L53.6416 75.3708L54.1669 74.5199ZM56.5391 77.2756L55.618 77.665L55.6191 77.6677L56.5391 77.2756ZM56.9084 81.196L55.9223 81.0295L55.9206 81.0401L56.9084 81.196ZM55.8572 84.3068L56.7377 84.7809L56.7396 84.7774L55.8572 84.3068ZM53.4283 87.6165L52.6818 86.951L52.6815 86.9514L53.4283 87.6165ZM49.0533 92.0909L48.3593 91.3709L48.3582 91.372L49.0533 92.0909ZM39.6357 101.196L38.9406 100.477L38.6734 100.735L38.6398 101.105L39.6357 101.196ZM39.6214 101.352L38.6256 101.262L38.5264 102.352H39.6214V101.352ZM54.8913 101.352L55.8768 101.522L56.0785 100.352H54.8913V101.352ZM54.6072 103V104H55.4496L55.5927 103.17L54.6072 103ZM37.7667 103.166L37.9939 101.817L36.0217 101.484L35.7944 102.834L37.7667 103.166ZM37.7039 102.369L48.8971 91.5163L47.5049 90.0803L36.3117 100.933L37.7039 102.369ZM48.8932 91.52C50.5221 89.9578 51.8347 88.6221 52.8241 87.5162L51.3336 86.1826C50.3912 87.2359 49.1185 88.5327 47.5088 90.0766L48.8932 91.52ZM52.8208 87.5198C53.827 86.4062 54.6064 85.3656 55.1308 84.4008L53.3735 83.4458C52.9509 84.2235 52.2814 85.1336 51.3368 86.179L52.8208 87.5198ZM55.1267 84.4081C55.6638 83.4393 56.0207 82.4201 56.1913 81.354L54.2164 81.038C54.0839 81.8659 53.8064 82.6648 53.3775 83.4385L55.1267 84.4081ZM56.19 81.3617C56.4132 80.0331 56.3227 78.7897 55.857 77.6722L54.0109 78.4414C54.3028 79.1421 54.3922 79.9916 54.2177 81.0303L56.19 81.3617ZM55.8618 77.6838C55.4108 76.5622 54.6544 75.6775 53.6161 75.0544L52.5871 76.7694C53.2533 77.1691 53.7185 77.7144 54.0061 78.4299L55.8618 77.6838ZM53.6203 75.057C52.5888 74.4311 51.3723 74.1449 50.0192 74.1449V76.1449C51.0903 76.1449 51.9287 76.37 52.5828 76.7669L53.6203 75.057ZM50.0192 74.1449C48.5947 74.1449 47.2631 74.4654 46.0417 75.1139L46.9796 76.8804C47.8984 76.3925 48.9057 76.1449 50.0192 76.1449V74.1449ZM46.0478 75.1107C44.847 75.7377 43.8369 76.5922 43.0269 77.6686L44.625 78.8712C45.2545 78.0346 46.0341 77.3741 46.9735 76.8836L46.0478 75.1107ZM43.0231 77.6737C42.2179 78.7581 41.701 79.976 41.4762 81.3144L43.4485 81.6458C43.6214 80.6168 44.0137 79.6945 44.6288 78.8661L43.0231 77.6737ZM42.4624 80.4801H40.7436V82.4801H42.4624V80.4801ZM41.7303 81.6425C41.9508 80.303 42.4606 79.1037 43.2631 78.0308L41.6616 76.8328C40.6649 78.1653 40.0289 79.6648 39.7569 81.3177L41.7303 81.6425ZM43.2601 78.0348C44.0792 76.9512 45.0912 76.0961 46.3052 75.4635L45.3809 73.6899C43.9055 74.4588 42.6637 75.5071 41.6646 76.8288L43.2601 78.0348ZM46.3101 75.4609C47.505 74.8298 48.8069 74.5114 50.2322 74.5114V72.5114C48.4948 72.5114 46.8705 72.9031 45.376 73.6925L46.3101 75.4609ZM50.2322 74.5114C51.6179 74.5114 52.7393 74.8137 53.6416 75.3708L54.6922 73.669C53.4165 72.8813 51.9148 72.5114 50.2322 72.5114V74.5114ZM53.6416 75.3708C54.5563 75.9355 55.2074 76.6938 55.618 77.665L57.4601 76.8862C56.8858 75.5278 55.9556 74.449 54.6922 73.669L53.6416 75.3708ZM55.6191 77.6677C56.024 78.6176 56.1424 79.7258 55.9223 81.0295L57.8944 81.3625C58.1667 79.7496 58.0389 78.2441 57.459 76.8835L55.6191 77.6677ZM55.9206 81.0401C55.7681 82.0062 55.4544 82.9371 54.9749 83.8362L56.7396 84.7774C57.3207 83.6879 57.7078 82.545 57.8961 81.352L55.9206 81.0401ZM54.9768 83.8327C54.4963 84.7251 53.7404 85.7635 52.6818 86.951L54.1747 88.2819C55.2941 87.0262 56.1576 85.8582 56.7377 84.7809L54.9768 83.8327ZM52.6815 86.9514C51.6255 88.137 50.1872 89.609 48.3593 91.3709L49.7473 92.8109C51.5936 91.0312 53.0719 89.5201 54.175 88.2816L52.6815 86.9514ZM48.3582 91.372L38.9406 100.477L40.3307 101.915L49.7483 92.8098L48.3582 91.372ZM38.6398 101.105L38.6256 101.262L40.6173 101.443L40.6315 101.287L38.6398 101.105ZM39.6214 102.352H54.8913V100.352H39.6214V102.352ZM53.9059 101.182L53.6218 102.83L55.5927 103.17L55.8768 101.522L53.9059 101.182ZM54.6072 102H36.7805V104H54.6072V102ZM62.2422 102.744L61.5012 103.416L61.5065 103.422L61.5119 103.427L62.2422 102.744ZM61.8445 101.651L60.8455 101.605L60.845 101.617L60.8447 101.628L61.8445 101.651ZM62.3416 100.585L61.6679 99.8463L61.6624 99.8513L61.6569 99.8564L62.3416 100.585ZM64.5149 100.599L63.7854 101.283L63.7964 101.295L63.8078 101.307L64.5149 100.599ZM64.9126 101.651L63.9151 101.581L63.9149 101.584L64.9126 101.651ZM64.657 102.432L63.8147 101.893L63.8069 101.905L63.7995 101.917L64.657 102.432ZM64.0746 102.986L63.6005 102.105L63.5932 102.109L63.586 102.113L64.0746 102.986ZM63.3075 102.185C63.1229 102.185 63.0411 102.134 62.9725 102.061L61.5119 103.427C61.9926 103.941 62.621 104.185 63.3075 104.185V102.185ZM62.9832 102.073C62.8883 101.968 62.8402 101.855 62.8442 101.673L60.8447 101.628C60.8298 102.298 61.0469 102.915 61.5012 103.416L62.9832 102.073ZM62.8434 101.696C62.8502 101.547 62.8976 101.435 63.0263 101.314L61.6569 99.8564C61.1606 100.323 60.8766 100.92 60.8455 101.605L62.8434 101.696ZM63.0154 101.324C63.1624 101.19 63.2944 101.145 63.4496 101.145V99.1449C62.7714 99.1449 62.1648 99.3932 61.6679 99.8463L63.0154 101.324ZM63.4496 101.145C63.6074 101.145 63.6958 101.188 63.7854 101.283L65.2445 99.9155C64.7658 99.405 64.144 99.1449 63.4496 99.1449V101.145ZM63.8078 101.307C63.9007 101.399 63.9229 101.468 63.9151 101.581L65.9102 101.72C65.9592 101.019 65.7162 100.387 65.222 99.8923L63.8078 101.307ZM63.9149 101.584C63.907 101.702 63.8742 101.8 63.8147 101.893L65.4992 102.971C65.7428 102.59 65.8804 102.167 65.9104 101.717L63.9149 101.584ZM63.7995 101.917C63.7512 101.998 63.6904 102.057 63.6005 102.105L64.5487 103.866C64.9511 103.65 65.2786 103.339 65.5145 102.946L63.7995 101.917ZM63.586 102.113C63.5004 102.161 63.4132 102.185 63.3075 102.185V104.185C63.7511 104.185 64.1753 104.076 64.5632 103.858L63.586 102.113ZM74.1918 101.622L73.4818 102.326L73.4875 102.332L74.1918 101.622ZM71.8622 96.4801L70.8756 96.6432L70.8756 96.6432L71.8622 96.4801ZM72.0753 88.4545L71.0886 88.2916L71.0885 88.2926L72.0753 88.4545ZM74.5043 80.4574L73.6098 80.0102L73.6083 80.0132L74.5043 80.4574ZM78.5526 75.3153L79.1548 76.1136L79.1556 76.1131L78.5526 75.3153ZM88.5526 75.3153L87.8454 76.0225L87.8483 76.0252L88.5526 75.3153ZM90.9247 80.4574L89.9388 80.6245L89.9389 80.6252L90.9247 80.4574ZM90.7116 88.4545L89.7254 88.2892L89.7249 88.2926L90.7116 88.4545ZM88.2685 96.4801L89.1621 96.9288L89.1629 96.9273L88.2685 96.4801ZM84.206 101.608L83.606 100.808L84.206 101.608ZM88.9787 88.4545L89.9651 88.6189L89.9652 88.6184L88.9787 88.4545ZM89.2628 81.3665L88.2716 81.4986L88.2716 81.4986L89.2628 81.3665ZM87.4588 76.7642L88.2138 76.1085L88.2138 76.1085L87.4588 76.7642ZM77.5156 78.625L76.7207 78.0183L76.7203 78.0188L77.5156 78.625ZM73.8224 88.4545L74.8089 88.6184L74.8091 88.6175L73.8224 88.4545ZM73.5099 95.5426L72.5175 95.6655L72.5181 95.6701L73.5099 95.5426ZM75.2997 100.145L74.5447 100.801L74.5476 100.804L75.2997 100.145ZM78.8935 102.398C77.1718 102.398 75.8727 101.881 74.896 100.912L73.4875 102.332C74.8972 103.731 76.7326 104.398 78.8935 104.398V102.398ZM74.9017 100.918C73.9072 99.9154 73.1959 98.4172 72.8488 96.3171L70.8756 96.6432C71.2672 99.0128 72.1089 100.943 73.4818 102.326L74.9017 100.918ZM72.8488 96.3171C72.5028 94.223 72.562 91.6635 73.0621 88.6165L71.0885 88.2926C70.5659 91.4766 70.483 94.2676 70.8756 96.6432L72.8488 96.3171ZM73.0619 88.6175C73.5611 85.5946 74.3459 83.0282 75.4002 80.9016L73.6083 80.0132C72.4467 82.3562 71.6122 85.1213 71.0886 88.2916L73.0619 88.6175ZM75.3987 80.9046C76.4647 78.7726 77.7245 77.1928 79.1548 76.1136L77.9503 74.5171C76.2178 75.8242 74.7787 77.6724 73.6098 80.0102L75.3987 80.9046ZM79.1556 76.1131C80.5789 75.0371 82.13 74.5114 83.8366 74.5114V72.5114C81.6797 72.5114 79.708 73.1883 77.9495 74.5176L79.1556 76.1131ZM83.8366 74.5114C85.5535 74.5114 86.8573 75.0343 87.8455 76.0224L89.2597 74.6082C87.8425 73.1911 86.0024 72.5114 83.8366 72.5114V74.5114ZM87.8483 76.0252C88.8599 77.0289 89.5833 78.5269 89.9388 80.6245L91.9107 80.2903C91.5086 77.9182 90.6505 75.9881 89.2569 74.6054L87.8483 76.0252ZM89.9389 80.6252C90.2931 82.7062 90.2345 85.2532 89.7254 88.2892L91.6979 88.6199C92.2305 85.4438 92.3139 82.6593 91.9105 80.2896L89.9389 80.6252ZM89.7249 88.2926C89.2257 91.3338 88.4365 93.908 87.374 96.0329L89.1629 96.9273C90.3353 94.5825 91.1749 91.8064 91.6984 88.6165L89.7249 88.2926ZM87.3748 96.0314C86.3097 98.1526 85.0459 99.728 83.606 100.808L84.806 102.408C86.5478 101.102 87.9924 99.2584 89.1621 96.9288L87.3748 96.0314ZM83.606 100.808C82.1845 101.874 80.6234 102.398 78.8935 102.398V104.398C81.0651 104.398 83.0456 103.728 84.806 102.408L83.606 100.808ZM79.1065 102.75C81.8222 102.75 84.141 101.388 86.0496 98.9082L84.4646 97.6884C82.8315 99.8106 81.0499 100.75 79.1065 100.75V102.75ZM86.0496 98.9082C87.9578 96.4285 89.24 92.9695 89.9651 88.6189L87.9923 88.2901C87.2969 92.4624 86.0981 95.5658 84.4646 97.6884L86.0496 98.9082ZM89.9652 88.6184C90.4302 85.8183 90.5362 83.3509 90.254 81.2343L88.2716 81.4986C88.5197 83.3594 88.4362 85.6173 87.9922 88.2907L89.9652 88.6184ZM90.254 81.2343C89.973 79.1269 89.3216 77.3841 88.2138 76.1085L86.7038 77.4199C87.471 78.3034 88.0222 79.6287 88.2716 81.4986L90.254 81.2343ZM88.2138 76.1085C87.0637 74.7841 85.5102 74.1449 83.6662 74.1449V76.1449C85.004 76.1449 85.9789 76.5852 86.7038 77.4199L88.2138 76.1085ZM83.6662 74.1449C80.947 74.1449 78.6279 75.5196 76.7207 78.0183L78.3105 79.2317C79.9451 77.0902 81.7263 76.1449 83.6662 76.1449V74.1449ZM76.7203 78.0188C74.8238 80.5067 73.5514 83.9595 72.8358 88.2916L74.8091 88.6175C75.495 84.4648 76.6848 81.3645 78.3109 79.2312L76.7203 78.0188ZM72.836 88.2907C72.3712 91.0887 72.2559 93.5528 72.5175 95.6655L74.5024 95.4197C74.2715 93.5552 74.3646 91.2939 74.8089 88.6184L72.836 88.2907ZM72.5181 95.6701C72.7892 97.7786 73.4356 99.5234 74.5447 100.801L76.0547 99.4892C75.2888 98.6072 74.7421 97.2839 74.5018 95.4151L72.5181 95.6701ZM74.5476 100.804C75.6999 102.119 77.2582 102.75 79.1065 102.75V100.75C77.7541 100.75 76.7746 100.311 76.0519 99.4859L74.5476 100.804Z" fill="#857A7A" mask="url(#path-1-outside-1_1_4)"/>
</g>
<defs>
<clipPath id="clip0_1_4">
<rect width="128" height="128" fill="white"/>
</clipPath>
</defs>
</svg>
